<svg xmlns="http://www.w3.org/2000/svg" xmlns:xlink="http://www.w3.org/1999/xlink" viewBox="0 0 275 256">
  <path fill="currentColor" d="M211 93.7c-30.6 0-55.4 24.9-55.4 55.4 0 30.6 24.9 55.4 55.4 55.4 30.6 0 55.4-24.9 55.4-55.4C266.5 118.6 241.6 93.7 211 93.7zM211 197.6c-26.7 0-48.4-21.7-48.4-48.4 0-26.7 21.7-48.4 48.4-48.4 26.7 0 48.4 21.7 48.4 48.4C259.5 175.9 237.7 197.6 211 197.6zM204.8 177l-23.1-25.4 10.6-9.7 12.2 13.4 28.9-34 10.9 9.3L204.8 177z"/>
  <path fill="currentColor" d="M159 184.1H21.4c-4.6 0-8.4-3.8-8.4-8.4V112h147.6c10.9-14.7 28-24.5 47.4-25.5V70.2c0-7.8-6.4-14.2-14.2-14.2H22.2C14.3 56 8 62.3 8 70.2v105.7c0 7.8 6.3 14.2 14.2 14.2h141.4C162 188.2 160.4 186.2 159 184.1zM13 70.4c0-4.6 3.8-8.4 8.4-8.4h172.3c4.6 0 8.4 3.8 8.4 8.4V82H13V70.4zM28 141h92v4H28V141zM81 127v4H28v-4H81z"/>
</svg>
