<svg xmlns="http://www.w3.org/2000/svg" viewBox="0 0 256 256"><path fill="currentColor" d="M181.8,117.3c-0.2-25.2,20.6-37.3,21.5-37.9c-11.7-17.1-29.9-19.4-36.4-19.7c-15.5-1.6-30.3,9.1-38.2,9.1	c-7.9,0-20-8.9-32.9-8.7C78.9,60.5,63.3,70,54.6,85.2c-17.6,30.4-4.5,75.6,12.6,100.3c8.4,12.1,18.4,25.7,31.5,25.2	c12.6-0.5,17.4-8.1,32.6-8.1c15.3,0,19.5,8.1,32.9,7.9c13.6-0.3,22.2-12.3,30.5-24.4c9.6-14,13.6-27.6,13.8-28.3	C208.2,157.5,182,147.4,181.8,117.3 M156.7,43.4c7-8.4,11.7-20.1,10.4-31.8c-10,0.4-22.2,6.7-29.3,15.1	c-6.5,7.5-12.2,19.7-10.7,31.1C138.2,58.6,149.7,51.8,156.7,43.4"/></svg>