<svg xmlns="http://www.w3.org/2000/svg" viewBox="0 0 256 256"><path fill="currentColor" d="M247 144.1v-32.7l-33.8-11.7c-1.2-3.7-2.6-7.2-4.2-10.6l14.4-34.7 -23.1-23.1L167.8 47c-3.3-1.6-6.6-3.1-10.1-4.3L143.4 8h-32.7L98.8 42.2c-3.3 1.1-6.6 2.5-9.8 3.9L55.1 32.1 32 55.3l15.3 31.5c-2 4-3.8 8.1-5.2 12.4L9 112.9v32.7l33.6 11.6c1.2 3.5 2.6 6.9 4.3 10.1l-14.2 34.3 23.1 23.1 32.9-16c3.2 1.5 6.5 2.9 9.9 4l14.6 35.2h32.7l12.4-35.8c3.1-1.1 6.2-2.4 9.2-3.9l34 14.1 23.1-23.1 -15.8-32.5c1.3-2.6 2.4-5.4 3.4-8.1L247 144.1zM127.5 180.1c-28.6 0-51.8-23.2-51.8-51.8 0-28.6 23.2-51.8 51.8-51.8s51.8 23.2 51.8 51.8C179.3 156.9 156.1 180.1 127.5 180.1z"/></svg>