<svg xmlns="http://www.w3.org/2000/svg" viewBox="0 0 936 256"><path fill="currentColor" d="M170 155l-19 93c0 3-25-89-24-92 19-55 3-80-13-80H77c0-9 2-39-17-68h91c-24 63 5 113 19 147zM161 8c13 30 10 62-1 92-2 6 2 21 6 20 10-27 14-41 39-44h34c-4-8-17-31 1-68h-79zm289 45c0-8-2-31-12-45H258c-16 24-10 50 1 68h142c22 0 31 17 30 46-1 13-10 33-17 43-1 2 15 57 21 83l2-3c4-7 11-42 14-64 2-21-6-45-7-57-2-27 7-59 6-71zm269 60s-3 27-14 56c-4 18-1 31 3 48 3 15 7 21 10 31h4c23-54 20-81 0-135h-3zM498 99l204 149c0-4-10-31-13-45-2-17-1-22 2-38-24-16-42-31-73-51-4-3-8-12-6-19 1-10 10-19 19-19h57s-21-34 0-68h-82c0 7-3 13-3 24 1 12 9 22 4 40-4 14-9 20-13 22L476 8h-16l-1 1c8 16 12 37 10 56-2 24-6 28-6 49 0 22 8 41 7 63-2 33-9 58-12 68-1 3 1 3 1 3h98c-18-34-11-58-11-58h-37c-27 1-29-37-26-62 2-19 14-28 15-29zm417 25c-5-21-1-31 8-49 4-8 5-31 5-34 0 0-1-33-17-33H708s-23 30 0 68h173c15-1 19 18 19 32s-7 36-11 48c-3 10 11 55 19 92h3c1-3 16-80 15-91l-11-33z"/><path d="M114 172a55 55 0 0 0-90-18 55 55 0 0 0-12 60 55 55 0 0 0 90 18 55 55 0 0 0 12-60zm-19 50l-49-36-2 2-2 5v10c1 4 3 5 6 5h9c0 6 0 11 2 15H36v-1l1-6 2-11-1-8a34 34 0 0 1 0-13 46 46 0 0 0 0-14l-2-6v-1h4a401 401 0 0 0 30 20l2-4v-5l-1-5v-3-3h20c-2 5-2 10 1 17H77l-2 2-2 3v3l1 1a227 227 0 0 1 18 13l-1 5a26 26 0 0 0 2 10 41 41 0 0 0 2 5z"/></svg>
