<svg xmlns="http://www.w3.org/2000/svg" viewBox="0 0 256 256"><path fill="currentColor" d="M76,162c0,10.2,6.9,19,17.1,19h7.9v25.9c0,5.1,3.1,9.8,7.8,11.6c8.4,3.1,15.2-4.9,15.2-12.9V181h12v24.5	c0,6.8,7.1,13.6,12.4,13.6c6.9,0,11.6-6.8,11.6-13.6V181h6.2c10.2,0,19.8-7.9,19.8-18.1V96H76V162z M152.4,38.7l7.8-15	c0.4-0.8,0.1-1.6-0.7-2c-0.8-0.4-1.7-0.2-2.1,0.6l-7.9,15.3c-6.2-2.4-12.8-4.2-19.9-4.2c-7.1,0-13.9,1.8-20.2,4.2l-7.9-15.2	c-0.4-0.7-1.2-1-1.9-0.6c-0.7,0.4-1.3,1.3-0.9,2l7.8,15c-17.5,7.9-28.8,25.4-31,45.3h109.7C183.1,64.1,169.9,46.7,152.4,38.7z M110.1,71.5c-4.6,0-8.4-3.7-8.4-8.4s3.7-8.4,8.4-8.4s8.4,3.7,8.4,8.4S114.7,71.5,110.1,71.5z M150.7,71.5c-4.6,0-8.4-3.7-8.4-8.4	s3.7-8.4,8.4-8.4s8.4,3.7,8.4,8.4S155.3,71.5,150.7,71.5z M57,158L57,158c-6.6,0-12-5.4-12-12V93c0-6.6,5.4-12,12-12H57	c6.6,0,12,5.4,12,12V146C69,152.6,63.6,158,57,158z M205,158L205,158c-6.6,0-12-5.4-12-12V93c0-6.6,5.4-12,12-12h0.1	c6.6,0,12,5.4,12,12V146C217,152.6,211.6,158,205,158z"/></svg>