<svg xmlns="http://www.w3.org/2000/svg" viewBox="0 0 256 256"><path fill="currentColor" d="M159.3 157.3c2.3-3.7 3.1-8 2.2-12.3l-14.1-63.3C145.7 74.3 139 69 131.5 69c0 0 0 0 0 0 -1.2 0-2.4 0.1-3.5 0.4L22.2 93c-4.2 0.9-7.8 3.5-10.2 7.2 -2.3 3.7-3.1 8-2.2 12.3L24 175.7c1.6 7.4 8.3 12.7 15.9 12.7 1.2 0 2.4-0.1 3.5-0.4l105.8-23.6C153.4 163.5 157 160.9 159.3 157.3zM15.7 111.1c-1.2-5.5 2.3-11 7.8-12.3l105.8-23.6c0.7-0.2 1.5-0.2 2.2-0.2 4.7 0 9 3.3 10 8l1.2 5.3L17.2 117.7 15.7 111.1zM42.1 182.2c-0.7 0.2-1.5 0.2-2.2 0.2 -4.7 0-9-3.3-10-8l-8.3-37.1L147 107.8l8.6 38.5c1.2 5.5-2.3 11-7.8 12.3L42.1 182.2zM120.6 42h101c3.3 0 6 2.7 6 6v157c0 3.3-2.7 6-6 6h-101c-3.3 0-6-2.7-6-6v-27.7l6-1.3V205h101V48h-101v15.1l-6 1.3V48C114.6 44.7 117.2 42 120.6 42zM51.8 164.6l0.7 2.9 -11.7 2.7 -0.7-2.9L51.8 164.6zM102.3 152.8l0.7 2.9 -11.7 2.7 -0.7-2.9L102.3 152.8zM77.1 158.7l0.7 2.9 -11.7 2.7 -0.7-2.9L77.1 158.7zM169.6 33c-2.2 0-4-1.8-4-4 0-2.2 1.8-4 4-4 2.2 0 4 1.8 4 4C173.6 31.2 171.8 33 169.6 33zM162.3 218c-4.4 0-8 3.6-8 8s3.6 8 8 8h18c4.4 0 8-3.6 8-8s-3.6-8-8-8H162.3zM182.3 226c0 1.1-0.9 2-2 2h-18c-1.1 0-2-0.9-2-2s0.9-2 2-2h18C181.4 224 182.3 224.9 182.3 226zM207.6 142h-37v-5h37V142zM133.6 182h74v5h-74V182zM240.6 31v194c0 12.7-10.3 23-23 23h-93c-12.7 0-23-10.3-23-23v-44.8l6-1.3V225c0 9.4 7.7 17 17 17h93c9.4 0 17-7.7 17-17V31c0-9.4-7.7-17-17-17h-93c-9.4 0-17 7.7-17 17v35.1l-6 1.3V31c0-12.7 10.3-23 23-23h93C230.2 8 240.6 18.3 240.6 31zM167.6 160h40v5h-40V160zM207.6 97h-46v-5h46V97zM207.6 75h-51v-5h51V75zM207.6 120h-41v-5h41V120z"/></svg>