<svg xmlns="http://www.w3.org/2000/svg" viewBox="0 0 725.7 725.7"><path fill="currentColor" d="M563.4 228.9L301.5 536.6l-139.2-153 45.6-41.7 75.4 82.8 7.9 8.7 9.2 10.1 8.9-10.4 7.6-8.9L516.6 189 563.4 228.9zM702.9 362.8c0 187.5-152.6 340.1-340.1 340.1S22.7 550.4 22.7 362.8c0-187.5 152.6-340.1 340.1-340.1 46 0 90.7 9.1 132.7 26.9C536.2 66.9 572.7 91.6 604 123c31.2 31.3 55.6 67.6 72.6 108C694.2 272.8 703.1 317.2 702.9 362.8zM676.4 363.5c0-172.9-140.7-313.6-313.6-313.6S49.3 190.6 49.3 363.5 189.9 677 362.8 677c42.4 0 83.6-8.4 122.4-24.8 37.5-15.9 71.2-38.7 100-67.7 28.7-28.8 51.2-62.3 66.9-99.5C668.4 446.5 676.6 405.6 676.4 363.5z"/></svg>