<svg xmlns="http://www.w3.org/2000/svg" xmlns:xlink="http://www.w3.org/1999/xlink" viewBox="0 0 256 256">
  <path fill="currentColor" d="M30.1 203.7c19.2-11.6 33.1-22.9 41.5-34.1s10.7-18.3 14.2-36.2c-11 2.6-19.2 3.9-24.6 3.9 -15.5 0-27.9-5-37.3-15.1C14.5 112.3 9.8 99.2 9.8 83c0-16.2 4.8-29 14.3-38.6C33.6 34.8 46.2 30 61.9 30c19 0 34.3 7 45.9 21.1 11.6 14.1 17.4 32.6 17.4 55.5 0 47.8-23.6 82.4-78.3 118.4L30.1 203.7zM152 203.7c19.2-11.6 33.1-22.9 41.5-34.1 8.4-11.1 10.7-18.3 14.2-36.2 -11 2.6-19.2 3.9-24.6 3.9 -15.5 0-27.9-5-37.3-15.1 -9.4-10-14.1-23.1-14.1-39.3 0-16.2 4.8-29 14.3-38.6 9.5-9.6 22.1-14.4 37.8-14.4 19 0 34.3 7 45.9 21.1 11.6 14.1 17.4 32.6 17.4 55.5 0 47.8-23.6 82.4-78.3 118.4L152 203.7z"/>
</svg>
