<svg xmlns="http://www.w3.org/2000/svg" version="1" viewBox="0 0 518 98"><path fill="#08829E" d="M24.8,64.9V36.7h-23V25.5h30.3c3.1,0,5.6,2.5,5.6,5.5v33.9H24.8z M1.8,64.9V43.3h12.7v21.6H1.8z M58.5,64.9	H45.7V36.7h-5V25.5H53c3.1,0,5.6,2.5,5.6,5.5L58.5,64.9z M80.2,64.9H67.4V36.7h-5V25.5h12.3c3.1,0,5.6,2.5,5.6,5.5L80.2,64.9z M117.8,25.5c4.1,0,7,3.2,7,7c0,0.7-0.1,1.4-0.3,2.1l-9,29.2l-11.2-4.1l7.2-23H100v36.9H87.7V36.7h-5.2V25.5H117.8z M156.7,64.9	V36.7h-10.2v28.2h-21V53.8h8.2V36.7h-5.8V25.5h36c3.1,0,5.6,2.5,5.6,5.5v33.9H156.7z M212.1,64.9V36.7h-9.5v28.2h-12.7V36.7h-5.4	V25.5h34.7c3.1,0,5.6,2.5,5.6,5.5v33.9H212.1z M258.6,64.9V36.7h-10.2v28.2h-21V53.8h8.2V36.7h-5.8V25.5h36c3.1,0,5.6,2.5,5.6,5.5	v33.9H258.6z M299,36.7h-8.8v11H278v-11h-3.7V25.5h32.1c3.1,0,5.6,2.5,5.6,5.5v26.4c0,2.5-2.1,5.6-5.6,5.9l-31.2,3V55.2l23.9-2.3	V36.7z"/><path fill="#010101" d="M335.8,64.7V36.7h-20.4V25.5h27.7c3.1,0,5.5,2.4,5.5,5.5v33.8H335.8z M389.7,62.7V51.9l-4.7,0.3V31	c0-3-2.5-5.5-5.5-5.5c0,0-0.1,0-0.1,0h-25.9v11.2h18.7v16.6L353.5,55v11.1L389.7,62.7z M414.1,53.1L394.1,55v11.1l27.3-2.6	c3.4-0.3,5.5-3.4,5.5-5.9V31c0-3.1-2.5-5.5-5.6-5.5l0,0h-29.6v11.2h22.3L414.1,53.1L414.1,53.1z M468.4,49.9	c-2.8-2.7-4.3-6.4-4.3-10.3c0-5.2,2.8-10,7.2-12.6c-1-1-2.4-1.5-3.8-1.5h-12.4v11.2h4.4l-3.3,11.6c-0.4,1.5-1.2,2.6-2.6,3.2	l-0.5,0.2l-5.5-21.9c-0.7-2.7-2.9-4.2-5.9-4.2h-10.2v11.2h5.1l4.7,18l-9.1,2.4l3,10.9c0,0,14.7-3.9,17.6-4.6c8.8-2,13.4-6,15.4-13.2	L468.4,49.9L468.4,49.9L468.4,49.9z M485.7,39.9c0-1-0.3-2.1-0.7-3c-1.6-3.3-5.6-4.6-8.9-2.9c-3.3,1.6-4.6,5.6-2.9,8.9	c1.1,2.2,3.4,3.6,5.9,3.6v5.4c-6.6,0-12-5.4-12-12.1s5.4-12,12.1-12c4.5,0,8.6,2.6,10.7,6.6c0.9,1.7,1.3,3.6,1.3,5.5L485.7,39.9	L485.7,39.9L485.7,39.9z M492.3,49.2c1.4,0,2.5-1.1,2.5-2.5c0-1.4-1.1-2.5-2.5-2.5c-1.4,0-2.5,1.1-2.5,2.5l0,0	C489.8,48.1,490.9,49.2,492.3,49.2z M516.5,65.4l0-0.4c-1-11.8-6.6-19.2-11.9-23.7c3.6-4.9,2.5-11.7-2.4-15.3	c-4.8-3.5-11.4-2.6-15.1,2.1c1.5,1,2.9,2.4,3.9,3.9l0.1-0.1c1.7-2.5,5.2-3.1,7.7-1.4c2.5,1.7,3.1,5.2,1.4,7.7	c-0.3,0.4-0.6,0.7-1,1.1l-0.1,0.1c-1.3,0.8-1.7,2.4-1,3.7c0.2,0.4,0.5,0.7,0.8,0.9c6.4,4.4,10.4,10.6,11.7,18.4l-13.1-2.5	c-0.7-0.5-1.2-1.1-1.7-1.7c-0.9-1.2-1.5-2.6-1.9-4.1l-2.2,0.5c0.4,1.7,1.1,3.2,2.1,4.6l-5.4-1c-1.5-0.3-2.9,0.7-3.2,2.2	c-0.3,1.5,0.7,2.9,2.2,3.2l0,0l25.9,4.9l0.5,0c1.5,0,2.7-1.2,2.7-2.7C516.5,65.5,516.5,65.5,516.5,65.4z"/></svg>