<svg xmlns="http://www.w3.org/2000/svg" xmlns:xlink="http://www.w3.org/1999/xlink" viewBox="0 0 256 256">
  <path fill="currentColor" d="M219.9 89.5H202V55.6l-30-25.1H67.3c-7.9 0-14.3 6.4-14.3 14.3v44.7H36.1c-5.6 0-10.1 4.6-10.1 10.1v77.7c0 5.6 4.6 10.1 10.1 10.1H52v18c0 7.7 6.3 14 14 14H189c7.7 0 14-6.3 14-14v-18h16.9c5.6 0 10.1-4.6 10.1-10.1V99.6C230 94.1 225.4 89.5 219.9 89.5zM67.8 38.5h101.6L194 59.3v30.2H62V44.3C62 41.1 64.6 38.5 67.8 38.5zM189.5 210.5H66.5c-3.1 0-5.5-2.5-5.5-5.5v-41.5h134V205C195 208 192.5 210.5 189.5 210.5zM197.1 125.4c-4.2 0-7.6-3.4-7.6-7.6 0-4.2 3.4-7.6 7.6-7.6 4.2 0 7.6 3.4 7.6 7.6C204.7 122 201.3 125.4 197.1 125.4z"/>
</svg>
