<svg xmlns="http://www.w3.org/2000/svg" viewBox="0 0 256 256"><path fill="currentColor" d="M106.2 112.7c0 10.3-0.3 20.1 0.1 29.9 0.7 23.4 1.7 46.9 2.6 70.3 0.3 6.8 0.4 13.5 0.8 20.3 0.4 8.4-5.2 14.8-13.2 14.8 -8 0.1-14.1-6.3-13.7-14.7 0.5-13.9 1.1-27.7 1.6-41.6 0.9-25.2 1.8-50.5 2.8-75.7 0.1-2.4-0.6-3.3-2.8-4 -15.4-5.3-25.2-20.6-24.2-36.8 1.2-19.6 2.1-39.2 3.1-58.8 0.3-5.6 2.6-8.3 7.3-8.2 4.5 0.1 6.7 3.4 6.7 8.9 0 17.4 0 34.6 0 51.9 0 4.8 2.2 7.1 5.9 7.1 3.7 0 5.8-2.6 5.8-7.1 0-17.4-0.2-37.1 0-54.5 0-2.2 1.4-6.5 6.5-6.5 4.2 0 7.8 3.3 7.8 6.5 0 10.9 0 47.4 0 54.5 0 4.6 1.7 7.1 5.4 7.1 3.6 0 6.3-2.5 6.3-7.1 0-17.4-0.1-35.7 0-53.2 0-2.7 0-4.6 2.3-6.3 4.4-3.3 10.7-0.7 11.2 4.9 0.8 9.8 1.3 19.6 1.8 29.4 0.6 10.2 1.2 20.5 1.6 30.8C132.6 93.5 123.7 106.5 106.2 112.7zM186.7 128c-6.4 3.8-8.9 9.3-8.3 16.5 0.9 10.6 2 21.1 2.9 31.7 1.7 18.1 3.5 36.2 5 54.3 1 11.8-10.7 20.2-21.9 16.6 -7.5-2.4-11-8.4-11-18 0-72 0-219.7 0-221 5.2 0.4 8.8 3.4 11.2 7.2 4 6.5 8 13.1 10.9 20.1 9.7 23.7 15.2 48.6 19.9 73.6C197 117.8 194.4 123.4 186.7 128z"/></svg>