<svg xmlns="http://www.w3.org/2000/svg" viewBox="0 0 256 256"><path fill="currentColor" d="M193.5 135.5c-0.3-30.3 24.8-44.9 25.9-45.6 -14.1-20.6-36-23.4-43.9-23.7 -18.7-1.9-36.4 11-45.9 11 -9.5 0-24.1-10.7-39.6-10.4 -20.4 0.3-39.1 11.8-49.6 30 -21.1 36.7-5.4 90.9 15.2 120.7 10.1 14.5 22.1 30.9 37.9 30.3 15.2-0.6 20.9-9.8 39.3-9.8 18.4 0 23.5 9.8 39.6 9.5 16.3-0.3 26.7-14.8 36.7-29.4 11.6-16.9 16.3-33.2 16.6-34.1C225.3 183.8 193.8 171.7 193.5 135.5M163.3 46.5c8.4-10.1 14-24.2 12.5-38.3 -12.1 0.5-26.7 8-35.3 18.1 -7.8 9-14.7 23.7-12.9 37.4C141 64.8 154.9 56.6 163.3 46.5"/></svg>