<svg xmlns="http://www.w3.org/2000/svg" version="1" viewBox="0 0 443 98"><path fill="#010101" d="M259.8,64.7V36.7h-20.4V25.5H267c3.1,0,5.5,2.4,5.5,5.5v33.8H259.8z M313.6,62.7V51.9l-4.7,0.3V31	c0-3-2.5-5.5-5.5-5.5c0,0-0.1,0-0.1,0h-25.9v11.2h18.7v16.6L277.5,55v11.1L313.6,62.7z M338,53.1L318.1,55v11.1l27.3-2.6	c3.4-0.3,5.5-3.4,5.5-5.9V31c0-3.1-2.5-5.5-5.6-5.5l0,0h-29.6v11.2H338L338,53.1L338,53.1z M392.3,49.9c-2.8-2.7-4.3-6.4-4.3-10.3	c0-5.2,2.8-10,7.2-12.6c-1-1-2.4-1.5-3.8-1.5h-12.4v11.2h4.4l-3.3,11.6c-0.4,1.5-1.2,2.6-2.6,3.2l-0.5,0.2l-5.5-21.9	c-0.7-2.7-2.9-4.2-5.9-4.2h-10.2v11.2h5.1l4.7,18l-9.1,2.4l3,10.9c0,0,14.7-3.9,17.6-4.6c8.8-2,13.4-6,15.4-13.2L392.3,49.9	L392.3,49.9L392.3,49.9z M409.6,39.9c0-1-0.3-2.1-0.7-3c-1.6-3.3-5.6-4.6-8.9-2.9c-3.3,1.6-4.6,5.6-2.9,8.9c1.1,2.2,3.4,3.6,5.9,3.6	v5.4c-6.6,0-12-5.4-12-12.1s5.4-12,12.1-12c4.5,0,8.6,2.6,10.7,6.6c0.9,1.7,1.3,3.6,1.3,5.5L409.6,39.9L409.6,39.9L409.6,39.9z M416.3,49.2c1.4,0,2.5-1.1,2.5-2.5c0-1.4-1.1-2.5-2.5-2.5s-2.5,1.1-2.5,2.5l0,0C413.8,48.1,414.9,49.2,416.3,49.2z M440.5,65.4	l0-0.4c-1-11.8-6.6-19.2-11.9-23.7c3.6-4.9,2.5-11.7-2.4-15.3c-4.8-3.5-11.4-2.6-15.1,2.1c1.5,1,2.9,2.4,3.9,3.9l0.1-0.1	c1.7-2.5,5.2-3.1,7.7-1.4c2.5,1.7,3.1,5.2,1.4,7.7c-0.3,0.4-0.6,0.7-1,1.1l-0.1,0.1c-1.3,0.8-1.7,2.4-1,3.7c0.2,0.4,0.5,0.7,0.8,0.9	c6.4,4.4,10.4,10.6,11.7,18.4l-13.1-2.5c-0.7-0.5-1.2-1.1-1.7-1.7c-0.9-1.2-1.5-2.6-1.9-4.1l-2.2,0.5c0.4,1.7,1.1,3.2,2.1,4.6	l-5.4-1c-1.5-0.3-2.9,0.7-3.2,2.2c-0.3,1.5,0.7,2.9,2.2,3.2l0,0l25.9,4.9l0.5,0c1.5,0,2.7-1.2,2.7-2.7	C440.5,65.5,440.5,65.5,440.5,65.4z"/><path fill="#08829E" d="M41.8,64.7h-35v-28H2.1V25.5h34.3c3,0,5.5,2.4,5.5,5.5L41.8,64.7z M29.2,36.6h-9.6v17h9.6V36.6z M51.9,48.8	V36.6h-6.5V25.5h13.8c3.1,0,5.5,2.4,5.5,5.5v17.8H51.9z M92.7,64.7H80.3l8.1-28H67.6V14.9h12.6v10.6h14.5c4.1,0,7,3.2,7,7	c0,0.7-0.1,1.4-0.3,2L92.7,64.7z M133.3,25.5c2.8,0,5,2.8,4.3,5.3l-5.6,19h-8.4l0.9,3.8h9.3c2.1,0,4-1.5,4.6-3.4l4-13.5h-2.9V25.5	h11.2c3.3,0,5.9,3.3,5,6.4l-5.5,19.8c-2.2,7.9-7.3,13-15.8,13h-19.1l-6.9-28h-4.6V25.5h9.3c2.8,0,4.9,1.3,5.6,4l3.7,15.4l2.4-8.2h-3	V25.5H133.3z M175.8,64.7h-12.7v-28h-5V25.5h12.3c3,0,5.5,2.4,5.5,5.5L175.8,64.7z M200.1,64.7v-28h-20.4V25.5h27.7	c3,0,5.5,2.4,5.5,5.5v33.7H200.1z M223,48.8V36.6h-6.5V25.5h13.8c3.1,0,5.5,2.4,5.5,5.5v17.8H223z"/></svg>