<svg xmlns="http://www.w3.org/2000/svg" xmlns:xlink="http://www.w3.org/1999/xlink" viewBox="0 0 256 256">
  <path fill="currentColor" d="M128.9 203.6l-60.4 33.2c-1.1 0.6-2.2 1-3.1 1.3 -0.8 0.3-1.6 0.5-2.2 0.5 -2.4 0-4-0.8-4.8-2.6 -0.8-1.8-1.1-4.2-0.8-7.4l11.9-70.5 -49.1-49.9c-2.9-3.2-4.1-6-3.3-8.6 0.8-2.4 3.1-4 7.3-4.6l67.8-10.5 30.1-64.4c0.8-1.8 1.9-3.1 3.1-4.1 1.1-1 2.5-1 3.6-1l0 0"/>
  <path fill="currentColor" d="M128 204l61.3 32.9c1.2 0.6 2.3 1 3.1 1.3 0.8 0.3 1.8 0.5 2.6 0.5 2 0 3.5-0.8 4.3-2.6 0.8-1.8 1.1-4.2 0.8-7.4l-11.9-70.4 49.1-49.9c2.9-3.2 4.1-6.1 3.3-8.6 -0.8-2.4-3.2-4-7.3-4.6l-67.9-10.5 -30.1-64.4c-0.9-1.7-2-3.1-3.1-4.1 -1.1-1-3.2-1-4.4-1"/>
</svg>
