<svg xmlns="http://www.w3.org/2000/svg" viewBox="0 0 256 256"><style>.htz-loader-circle{-webkit-transform-origin:center center;transform-origin:center center;-webkit-animation:htz-loader-animation 1.5s infinite linear;animation:htz-loader-animation 1.5s infinite linear}@-webkit-keyframes htz-loader-animation{0%{-webkit-transform:rotate(0);transform:rotate(0)}100%{-webkit-transform:rotate(-360deg);transform:rotate(-360deg)}}@keyframes htz-loader-animation{0%{-webkit-transform:rotate(0);transform:rotate(0)}100%{-webkit-transform:rotate(-360deg);transform:rotate(-360deg)}}</style><g class="htz-loader-circle"><linearGradient id="htz-loader-gradiant" gradientUnits="userSpaceOnUse" x1="55.8" y1="32.1" x2="189" y2="208.9"><stop offset="0.6" stop-color="currentColor"/><stop offset="0.9" style="stop-color:currentColor;stop-opacity:0"/></linearGradient><path fill="url(#htz-loader-gradiant)" d="M128 8C61.7 8 8 61.7 8 128c0 32.6 13.1 62.2 34.2 83.9l0 0c1.8 1.8 4.3 2.9 7.1 2.9 5.5 0 10-4.5 10-10 0-2.9-1.3-5.6-3.3-7.4C38.7 179.4 28 154.9 28 128 28 72.9 72.9 28 128 28c55.1 0 100 44.9 100 100 0 12.6-2.3 24.7-6.6 35.9l19.1 6.2c4.9-13.1 7.6-27.3 7.6-42.1C248 61.7 194.3 8 128 8z"/></g><path fill="currenColor" d="M189 184h-26v-80l-28 80h-18l-28-80v80H63l0-108h45l18 59 18-59h45V184z"/></svg>
