<svg xmlns="http://www.w3.org/2000/svg" viewBox="0 0 256 256"><path fill="currentColor" d="M64 235L64 235c-12.4 0-22.5-10.1-22.5-22.5v-40c0-12.4 10.1-22.5 22.5-22.5h0c12.4 0 22.5 10.1 22.5 22.5v40C86.5 224.9 76.4 235 64 235zM148.5 212.5v-104c0-12.4-10.1-22.5-22.5-22.5h0c-12.4 0-22.5 10.1-22.5 22.5v104c0 12.4 10.1 22.5 22.5 22.5h0C138.4 235 148.5 224.9 148.5 212.5zM214.5 212.5v-169c0-12.4-10.1-22.5-22.5-22.5h0c-12.4 0-22.5 10.1-22.5 22.5v169c0 12.4 10.1 22.5 22.5 22.5h0C204.4 235 214.5 224.9 214.5 212.5z"/></svg>