<svg xmlns="http://www.w3.org/2000/svg" viewBox="0 0 256 86">
<path fill="currentColor" d="M38.1,50.4c-2.8,14.8-5.2,25.2-5.3,26.1c-0.1,0.9-7.1-24.9-6.8-25.8C31.5,35.3,26.9,28,22.3,28C17.5,28,12,28,12,28
	c0-2.4,0.5-11-5-19h25C25.4,26.6,34,40.7,38.1,50.4z M35.1,9c3.7,8.5,2.9,17.6-0.2,25.9c-0.6,1.6,0.5,6,1.8,5.7
	C39.5,32.9,40.6,29,47.6,28c0.5,0,9.6,0,9.5,0c-1-2-5.1-8.5,0.1-19C57.1,9,35.1,9,35.1,9z M115.2,21.4c-0.2-2.2-0.7-8.7-3.4-12.4H62
	c-4.3,6.5-2.9,14.1,0.1,19c0.1-0.1,39.8,0,40,0c6.2,0.1,8.2,4.5,7.7,12.6c-0.2,3.6-2.6,9.1-4.5,11.7c-0.5,0.7,4.2,15.9,5.6,22.9
	c0,0,0.5,0,0.7-0.7c0.9-1.9,3-11.5,3.6-17.8c0.6-5.6-1.4-12.3-1.7-15.7C112.8,33.4,115.5,24.8,115.2,21.4z M189.5,37.8
	c0,0-0.8,7.5-4.1,15.5c-1,5-0.2,8.5,0.9,13.3c0.9,4,2,5.7,3,8.5h0.9c6.3-14.9,5.6-22.3,0.1-37.2C190.2,37.5,189.5,38,189.5,37.8z
	 M129,34.4l54.9,40.1c0-0.9-2.7-8.3-3.3-12c-0.8-4.7-0.5-5.9,0.5-10.4c-6.5-4.3-11.6-8.3-19.8-13.8c-1.1-0.7-2-3.1-1.7-5.1
	c0.4-2.6,2.9-5.2,5.1-5.2c8.2,0,16.3,0,16.3,0s-5.9-9.5,0-19c-20.7,0-23,0-23,0s-0.8,3.2-0.6,6.4c0.2,3.3,2.3,6,1,10.9
	c-1.1,3.9-2.4,5.6-3.5,6.3C144.3,24.9,122.3,9,122.3,9h-4.4c0,0-0.4,0.1-0.3,0.3c2.3,4.4,3.3,10.2,2.8,15.2
	c-0.7,6.8-1.6,7.8-1.6,13.5c0,6.2,2.2,11.4,1.8,17.6c-0.6,8.9-2.5,15.9-3.3,18.6c-0.3,0.9,0.2,0.8,0.2,0.8h27.1
	c-4.9-9.4-2.8-16-2.8-16s-5.2,0-9.7,0c-7.3,0.1-8-10-7.1-16.8C125.5,37,128.7,34.5,129,34.4z M243.4,40.8c-1.4-5.6-0.3-8.3,2.2-13.4
	c1.1-2.2,1.3-8.5,1.3-9.3c0,0-0.1-9.1-4.7-9.1c-24.8,0-55.8,0-55.8,0s-5.8,8.5,0.5,19c0,0,46.9,0,47,0c4.2,0,5.1,4.7,5.2,8.5
	c0,3.8-1.9,9.8-3,13.3c-0.8,2.6,3.1,15.1,5.2,25.2h0.9c0.3-0.8,4.3-21.9,4-24.9C246,48.4,244.4,44.9,243.4,40.8z"/>
</svg>
