<svg xmlns="http://www.w3.org/2000/svg" viewBox="0 0 256 256"><path fill="currentColor" d="M206.6,80.7c-19.2-31.4-56.1-47.1-91.7-38.6c-29.2,7-49.8,24.6-60.7,52.9c-9.7,25-7.3,49.5,5.6,73c0.5,0.9,0.7,2.3,0.4,3.2	c-3.2,9.7-14.3,38.9-16.2,44.1c1.6-0.6,32.4-9.9,47-14.5c0.9-0.3,2.1-0.3,2.8,0.1c8.7,4.5,17.8,7.6,27.4,9	c14.9,2.2,29.4,0.9,43.3-4.8c30-12.3,48.3-34.6,53.7-67C221.6,117.7,217.4,98.4,206.6,80.7z M147.3,159.1	c-10.7-3.5-20.6-8.3-28.8-16.2c-8.8-8.5-16.6-17.8-21.7-29.1c-4-9-3.9-17.9,2.3-26.1c2.6-3.4,5.2-4.9,10.4-5.3	c4-0.4,5.6,1.7,6.9,5.1c1.7,4.5,3.6,9,5.6,13.5c1,2.3,0.8,4.3-0.6,6.2c-1.4,1.9-2.8,3.7-4.4,5.4c-1.5,1.6-1.5,3.1-0.4,4.8	c6.3,10.4,14.7,18.4,25.9,23.3c5.2,2.3,5.2,2.4,8.8-2c1.5-1.8,3-3.7,4.4-5.6c1.3-1.7,2.8-4,4.7-3.2c5.6,2.7,11.2,7.3,16.8,9.9	c1.4,0.7,2,1.7,2,3.3c0.1,8.7-5.9,15.8-14.6,17.8C158.5,162.5,152.9,161,147.3,159.1z"/></svg>