<svg xmlns="http://www.w3.org/2000/svg" viewBox="0 0 256 256"><path fill="currentColor" d="M211,163c-4.7,10.9-11.1,20.5-19.3,28.7c-8.2,8.2-17.8,14.6-28.7,19.3c-10.9,4.7-22.6,7-35,7c-12.4,0-24.1-2.3-35-7	c-10.9-4.7-20.5-11.1-28.7-19.3c-8.2-8.2-14.6-17.8-19.3-28.7c-4.7-10.9-7-22.6-7-35c0-12.4,2.3-24.1,7-35	c4.7-10.9,11.1-20.4,19.3-28.7C72.6,56.2,82.1,49.7,93,45c10.9-4.7,22.6-7,35-7c12.4,0,24.1,2.3,35,7c10.9,4.7,20.4,11.1,28.7,19.3	c8.2,8.2,14.6,17.8,19.3,28.7c4.7,10.9,7,22.6,7,35C218,140.4,215.7,152.1,211,163z M173.2,157.4c-0.5-3.4-0.6-5.9-0.5-7.6	c0.1-1.7,0.5-4.2,1.2-7.6c-4.5-2.9-8.8-6-12.9-9.1c-4.1-3.2-9-6.8-14.9-10.8c-0.7-0.4-1.3-1.4-1.9-2.9c-0.6-1.5-0.7-2.9-0.5-4.2	c0.4-2,1.4-3.7,2.7-5.1c1.4-1.4,2.8-2,4.4-2c5.9,0,13.3,0,22.4,0c-4.3-11.4-4.4-20.4-0.3-27c-14.1,0-24.4,0-31.4,0	c0,1.1-0.2,2.4-0.5,3.9c-0.3,1.5-0.4,3.4-0.2,5.6c0,2.3,0.5,4.5,1.4,6.8c0.9,2.3,0.9,5.1,0,8.5c-0.9,2.7-1.8,4.8-2.6,6.1	c-0.8,1.4-1.6,2.3-2.6,2.7c-7.3-5.4-15.4-11.5-24.5-18.2c-9.1-6.7-15.9-11.9-20.4-15.5H86c-0.2,0-0.3,0.1-0.3,0.3	c1.6,3.2,2.7,6.7,3.4,10.6c0.7,3.9,0.8,7.6,0.3,11.2c-0.5,4.8-0.9,8.1-1.4,10c-0.5,1.9-0.7,4.9-0.7,9c0,4.5,0.5,8.8,1.4,12.8	c0.9,4,1.2,8.1,1,12.4c-0.5,6.4-1.2,12-2.2,16.9c-1,4.9-1.9,8.2-2.6,10c-0.2,0.7-0.1,1.3,0.3,1.7h37.1c-3.2-6.9-4.5-14.9-3.8-24	c-6.2,0-10.7,0-13.9,0c-5.2,0-8.3-2.8-9.3-8.3c-1-5.5-1.2-10.8-0.5-15.7c0.4-3.8,1.5-6.7,3-8.5c1.6-1.8,2.5-2.7,2.7-2.7l77.2,56.9	c0-0.2,0.1-0.3,0.3-0.3c0.2,0,0.2-0.1,0-0.3c-1.1-2.5-2.1-5.1-3-7.8C174.3,162.5,173.6,159.9,173.2,157.4z"/></svg>