<svg xmlns="http://www.w3.org/2000/svg" viewBox="0 0 256 256"><path fill="currentColor" d="M161.5,166.8c6.4,19.3,17.2,38.5,23.8,61.2H163c-6.8-21-16.5-33.1-21.8-48.9c-2.3-6.8-4.7-12.8-6.5-19.7	c-1.1-4.1-2.8-4.7-5.6-4.7c-3.1,0-4.8,2.1-5.5,4.4c-6.9,23-16.2,42.4-24.2,68.9H75.2c7.5-28.4,18.1-54.5,25.1-81.5	c0.5-2,0.8-3.6,0.8-5.6c1-18.3,0.9-27.2,0.9-45.8C88.3,93.3,57.4,91.8,37,90V70c21.2,1.5,58,3.2,73.8,3.7c17.5,0.6,35-0.3,52.5-1.1	c12.1-0.6,38.6-1.3,56.6-2.4V89c-18.2,1.7-44.6,3.6-56.9,5.2c-2.5,0.3-5.1,0.3-8.2,0.8c0,1.5-0.1,18.6,0,26.6	C155,139.5,155.9,149.8,161.5,166.8z M128.1,67.2c13.1,0,23.6-10.5,23.6-23.7c0-13.2-10.4-23.6-23.7-23.5	c-13.3,0-23.6,10.3-23.6,23.6C104.5,56.8,115,67.2,128.1,67.2z"/></svg>