<svg xmlns="http://www.w3.org/2000/svg" viewBox="0 0 256 256"><path fill="currentColor" d="M67 174c0 11.3 7.7 21 19 21h8v28.4c0 6.4 4.3 12.2 10.5 13.5 8.7 1.9 15.5-6.5 15.5-14.8V195h13v27.1c0 7.5 8 15.1 14 15.1 7.8 0 13-7.5 13-15.1V195h7c11.3 0 22-8.7 22-20v-74H67V174zM152 37.9l8.7-16.6c0.4-0.8 0.1-1.8-0.7-2.2 -0.8-0.4-1.9-0.2-2.3 0.7l-8.8 16.9c-6.9-2.7-14.2-4.7-22-4.7 -7.8 0-15.4 2-22.3 4.7l-8.8-16.9c-0.4-0.7-1.2-1-1.9-0.7 -0.9 0.4-1.6 1.4-1.1 2.3l8.7 16.6C82 46.7 69.5 66 67 88h121.4C186 66 171.4 46.7 152 37.9zM105.2 74.3c-5.1 0-9.2-4.2-9.2-9.3s4.1-9.3 9.2-9.3 9.2 4.2 9.2 9.3S110.3 74.3 105.2 74.3zM150.1 74.3c-5.1 0-9.2-4.2-9.2-9.3s4.1-9.3 9.2-9.3c5.1 0 9.2 4.2 9.2 9.3S155.2 74.3 150.1 74.3zM46.7 170h-0.3C39 170 33 164 33 156.7V98.3C33 91 39 85 46.3 85h0.3C54 85 60 91 60 98.3v58.3C60 164 54 170 46.7 170zM209.7 170h-0.3c-7.3 0-13.3-6-13.3-13.3V98.3c0-7.3 6-13.3 13.3-13.3h0.3c7.3 0 13.3 6 13.3 13.3v58.3C223 164 217 170 209.7 170z"/></svg>