<svg xmlns="http://www.w3.org/2000/svg" viewBox="0 0 256 256"><path fill="currentColor" d="M236.1 89H215V43.4L179.8 14h-123C47.5 14 40 21.5 40 30.8V89H19.9C13.4 89 8 94.4 8 100.9v92.2c0 6.5 5.4 11.9 11.9 11.9H39v20.6c0 9.1 7.3 16.4 16.4 16.4h144.2c9.1 0 16.4-7.3 16.4-16.4V205h20.1c6.5 0 11.9-5.4 11.9-11.9v-92.2C248 94.4 242.6 89 236.1 89zM56.9 24h119.2L205 48.1V89H50V30.9C50 27.1 53.1 24 56.9 24zM199.5 232h-144c-3.6 0-6.5-2.9-6.5-6.5V177h157v48.5C206 229.1 203.1 232 199.5 232zM209.3 132c-4.9 0-8.9-4-8.9-8.9 0-4.9 4-8.9 8.9-8.9 4.9 0 8.9 4 8.9 8.9C218.2 128 214.3 132 209.3 132z"/></svg>