<svg xmlns="http://www.w3.org/2000/svg" x="0" y="0" viewBox="0 0 256 54"><path fill="currentColor" d="M228.8 43.2c-1 0.7-2 1.4-3.1 2.1 0.2 0.9 0.6 1.3 1.4 0.7 0.3 1 0.8 1.8 1.4 2.7 0.3 0.1 0.5 0.1 0.8 0.2 -0.1-1 0-1.9-1.2-2.5 0.8-0.5 1.7-0.5 2.4-1.1C230.2 44.5 229.4 44 228.8 43.2M224.7 47.1c-0.5 0.3-0.9 0.8-1.4 1.2 0.6 0 1.3 0.1 1.9 0.1C225 48 224.8 47.6 224.7 47.1M161.9 6.4l0.4-0.3 -2.1 0.1v0.1c0 0.3 0 0.4 0.1 0.6 0 0.1 0.1 0.3 0.1 0.5l0.1 0.5 0.2-0.4c0.1-0.2 0.2-0.3 0.4-0.5C161.3 6.8 161.6 6.6 161.9 6.4M166.2 6.3l0.2-0.2c0 0-1.1-0.2-1.8-0.1 -0.3 0-0.8 0.2-0.8 0.2l0.1 0.2c0.2 0.4 0.4 0.7 1 0.7 0.3 0 0.6-0.1 0.8-0.2 0.1-0.1 0.2-0.2 0.3-0.3L166.2 6.3zM172 6.9l0.2-0.2L172 6.6c-0.8-0.3-1.6-0.6-2.4-0.8l-0.2-0.1 0.1 1.3 -0.2 0.2 0.2 0.1C170.1 7.9 170.9 7.9 172 6.9M174.1 7.6l0.1-0.2L174 7.3c-0.2-0.1-0.5-0.2-0.8-0.3L173 6.9v0.2c0.1 0.5 0.1 0.9 0.2 1.4h0.3C173.6 8.2 173.8 7.9 174.1 7.6M178.9 7.6l0.1-0.2 -2.2 0.1 0.3 0.2c0.3 0.3 0.7 0.6 0.9 1l0.1 0.1 0.1-0.1C178.5 8.5 178.8 8.1 178.9 7.6M191.2 8.2c0.7-0.1 1.4 0.1 1.9-0.6 -0.1-0.1-0.3-0.2-0.4-0.2l-2.6 0.2c-0.3-0.3-0.1-0.8-1.1-0.7 -1 0.1-0.7 0.5-1 0.8 -0.3 0-0.6 0.1-0.9-0.1 0 0 0.2-0.2 0.6-0.4 -1.6-0.1-3.2-0.7-4.1-0.7 -0.6 0-2.4 0.9-2.5 0.9l-1.6 0.1c0.7 0.3 1.2 1.2 1.8 1.6l4.3 0.3c-0.9-0.4-1.7-1-2.7-1.2 0.5-0.7 0.8-0.2 1.6-0.1h0.3c0.6 0 0-0.4 0.2-0.7 0.6 1.7 2.3 0.9 3.2 0.2l0.9 1.3c-0.5 0-1.5 0-1.9 0.2l1.5 0.3c0.3-0.2 0.8-0.3 1.2-0.3 0 0.2-0.1 0.4-0.4 0.5l1.7 0.4C191.7 9.6 191.5 8.8 191.2 8.2M242.8 24.3c0-0.1-0.1-0.1-0.3-0.2 -0.5-0.1-0.8-0.1-0.8-0.1 -0.3-0.1-0.4-0.6-0.3-0.9 0.1-0.2 0-0.4-0.3-0.3l-0.3 0.1c-0.3 0.1-0.1 0.4-0.1 0.5 0.1 0.1-0.1 0.2-0.3 0.2l-1.6 0.5C240.2 24.8 241.5 24.6 242.8 24.3M75 28.2h9.1c0-1.8-0.6-5.5-4.3-5.5C77.7 22.7 75.1 24.1 75 28.2M133.5 34.1c0.5-1.2 0.5-2.7 0.5-3.5 -2.8 0-5.5 0.1-5.5 2.8 0 1.4 0.8 2.5 2.4 2.5C131.6 35.8 132.8 35.5 133.5 34.1M182.3 27.7h6.3c0-1.3-0.8-3.5-3.1-3.5C182.7 24.1 182.2 26.8 182.3 27.7M241.4 42.3c-1 0.2-2.7-0.1-3.4-1 -0.2 0.2-0.3 0.5-0.3 0.8l-3.3-0.8c0-0.4-0.1-0.7-0.2-1.1 3.1 2 2.2 0.4 4-1.1C241.1 41.6 237.5 40.8 241.4 42.3M239.9 26l-0.1 0.1c-0.3 0.4-0.6 0.8-0.6 1.4v0.2l-0.2-0.1c-0.9-0.6-2.1-0.6-3.4 0l0.1 0.8 -1.5 0.1c-0.1-0.5-0.9-0.8-0.9-1.3l1.7-0.1 -0.1-0.8 0.2 0.1c0.1 0.1 0.3 0.1 0.4 0.2 0.1 0 0.2 0.1 0.3 0.1 0.2 0.1 0.5 0.1 0.9 0.1 0.2 0 0.3 0 0.4-0.1 0.1 0 0.1-0.1 0.1-0.1 0.1-0.1 0.2-0.3 0.7-0.3L239.9 26zM231.9 25c-1.5-0.9-2.2-2-3.9-2.5 1-0.3 2.3 0 3.2 0.7 0.1-0.2 0.1-0.5 0-0.7 1 0.1 2.1 0.3 3.1 0.4 0.1 0.3 0.3 0.6 0.5 0.9C232.9 22.9 232.9 23.2 231.9 25M228.8 24.7l-1.9-0.1c-0.2-0.4-0.7-0.6-1-0.9C226.5 22.3 228.2 23.9 228.8 24.7M222.1 16.6c0.3-1.8 2.1-0.7 3.4-0.2L222.1 16.6zM209.2 26.3c-0.8-0.1-0.9 0-1.4 0 -4 0-4.6 3.2-4.6 5.2v7.9h-6.5V20.7h6.2V23c1.5-2.4 4.8-2.1 6.3-2V26.3zM194.7 31.5h-12.5c0 0.7-0.1 1.5 0.2 2.2 0.4 1.3 1.4 2.4 3.1 2.4 1.1 0 2.6-0.8 3-2.6h6.2c-0.8 4.6-5 6.8-9.2 6.8 -5.3 0-9.3-3.7-9.3-9.9 0-6.3 3.1-10.3 9.3-10.3 4.6 0 7.1 2.1 8.3 4.8C194.5 26.4 194.7 28.2 194.7 31.5M176.2 20.7l-5.5 7.9 6.4 10.8h-7.2l-6.2-10.3 5.9-8.4H176.2zM163.7 39.4h-6.4V12.5h6.4V39.4zM155.5 26.3c-0.8-0.1-0.9 0-1.4 0 -4 0-4.6 3.2-4.6 5.2v7.9H143V20.7h6.2V23c1.5-2.4 4.8-2.1 6.3-2V26.3zM140.1 39.4H134v-2.7c0 0-2.2 3.1-5.7 3.1 -4.3 0-6.2-2.5-6.2-5.8 0-5.1 4.4-7 11.9-6.6 0.2-2.3-0.6-4-2.5-4 -1.1 0-2.4 0.8-2.5 2.4h-5.8c0.1-0.9 0.2-2.2 1.3-3.4 1.4-1.5 4.1-2.3 7.2-2.3 1.6 0 4.9 0.2 6.7 2.2 1.1 1.2 1.5 2.9 1.5 4.9v12.2C139.9 39.4 140.1 39.4 140.1 39.4zM128.1 7.9c0.1 0.4-0.3 0.6-0.6 0.7 -0.3 0.1-0.7 0.2-1 0.2h-0.1V8.7c-0.1-0.4 0.3-0.6 0.5-0.7 0.3-0.1 0.7-0.2 1-0.2L128.1 7.9 128.1 7.9zM124.9 7.3c0.1 0.3-0.2 0.6-0.4 0.9 -0.1 0.1-0.3 0.3-0.5 0.4s-0.3 0.2-0.5 0.4l-0.2 0.2 -0.1-1.9H124.9L124.9 7.3zM119.9 39.4h-6.6V18l-5.7 21.4h-6.3l-5.5-21.6v21.6h-6V12.5h10l5 17.5 4.2-17.5 10.8-0.1L119.9 39.4zM119.4 7.7c0.1 0.4-0.3 0.6-0.6 0.7 -0.3 0.1-0.7 0.2-1 0.2h-0.1V8.5c-0.1-0.4 0.3-0.6 0.6-0.7C118.6 7.7 119 7.6 119.4 7.7L119.4 7.7 119.4 7.7zM103.5 8.6L102 8.7c-0.1-0.5-0.9-0.8-0.9-1.3l2.3-0.1L103.5 8.6zM87.4 30.7H74.9c-0.1 3.9 1.3 6.7 5 6.7 1.4 0 3.8-1.2 4.1-3.9h3.3c-0.1 0.9-0.2 2.5-1.5 3.9 -0.8 0.9-2.5 2.5-6 2.5 -5 0-8.1-3.6-8.1-9.6 0-3.7 0.7-6.7 3.4-8.8 1.7-1.3 3.7-1.4 4.8-1.4C87 20.2 87.5 27.6 87.4 30.7M79.2 7.6l-0.5 0.1c-0.6 0.2-1.6 0.1-1.5-0.8V6.7h0.2c0.4-0.1 0.7 0.1 1 0.2 0.1 0.1 0.2 0.2 0.3 0.2C78.8 7.2 79.2 7.6 79.2 7.6M69.7 6.4c-0.6 0.1-0.8 0.3-0.8 0.9l-1.6 0.1 -0.1-1.5C67.8 5.8 68 5.6 68 5l1.6-0.1L69.7 6.4zM63.3 5.7l-1.8-0.2 -0.1-1.4L62.9 4 63.3 5.7zM61.9 20.1c2.9-0.1 5.5 1 6.5 3.2 0.3 0.7 0.8 1.8 0.8 4.5v11.7h-3.3V28.4c0-1.7-0.3-5.3-4.1-5.3 -2.5 0-3.3 1.6-3.8 2.5 -0.6 1-0.6 2.8-0.6 3.9v9.9h-3.2V12.5h3.3V22C58.6 20.5 60.3 20.1 61.9 20.1M59.8 7.7h-2.5l-0.4-1.3 2.7-0.2L59.8 7.7zM51.9 15.7h-8v23.7h-3.4V15.7h-8.4v-3.2h19.8C51.9 12.5 51.9 15.7 51.9 15.7zM47.2 3.8l-0.6 0.4C45.7 4.9 44.7 5 44 4.9l-0.4-0.1 0.2-0.4c0.5-0.8 1.6-0.9 2.6-0.8L47.2 3.8zM247.9 41.3c0-0.1-0.7-0.6-1.7-1.1 1.1-1.2 1.1-1.8 1-3.2 -0.1-0.9-2.1-2.7-2.4-4.2 -1.8-0.5-3.2-0.7-3.3-1.4 -0.1-0.9 1.9-2.2 1.8-3.1 -0.1-0.9-1.2-0.6-1.3-1.5 0-0.4 0-0.8 0-1.1 -0.2 0-0.4 0.1-0.6 0.1 -1.5-0.1-2.8-1.2-4.3-1.2 -0.7 0-1.3 0.8-2 1l-0.5-1.4 0.7 0.8c0.6-1 2-0.1 1.5-2.1 0.4 0.3 0.8 0.3 1.2 0.3 0.2-0.2 0.5-0.3 0.6-0.3 0.3 0 0.3-0.7 0.4-0.9 0.1-0.2 0.4-0.4 0.6-0.3h0.8c-0.2 0-0.4-0.1-0.5-0.2 0.1-0.1 0.2-0.3 0.3-0.4 -0.2 0-0.2-0.6-0.3-0.8 0-0.1 0-0.1-0.1-0.2 -0.5 0-1.1-0.1-1.7-0.1 -0.3 0-0.1 0.2 0.1 0.2 0.2 0 0.2 0.2 0 0.4l-0.1 0.1c-0.2 0.2-0.5 0.2-0.7 0.1h-1.2c-0.3 0.1-0.6-0.2-0.6-0.2 0-0.1 0-0.1-0.1-0.1s-0.7 0-0.8-0.1 0-0.2 0.2-0.3l0.8-0.2c0.1 0 0.1 0 0.1-0.1l-2.4-0.2c-0.1 0.1-0.3 0.1-0.3 0.2l-0.8 0.3c-0.2 0.1-0.5-0.2-0.6-0.4 -0.1-0.2-0.4-0.2-0.6 0l-2.1-0.3c-0.2-0.2-0.4-0.1-0.5 0.2l-0.3 0.7c-0.1 0.3-0.4 0.4-0.7 0.4 0 0-1.9-0.2-3-0.2 -0.7 0-0.6-0.9-1.3-0.9s-0.9 0.5-0.9 0.5c-0.1 0.3-0.3 0.3-0.6 0.2l-1-1.2c-0.2-0.2-0.4-0.2-0.4 0.1l-0.1 0.9c0 0.3-0.6 0.5-0.8 0.4s-0.3-0.4-0.3-0.7V19c0-0.3 0.2-0.5 0.5-0.5l4.2-1.2c0.3-0.1 0.5 0.1 0.5 0.3l0.4 0.7c0.2 0.2 0.5 0.1 0.6 0s0.2 0.1 0.3 0.2 0.3-0.1 0.3-0.2 0.2 0 0.4 0.2l0.6 0.5c0.2 0.2 0.6 0.4 0.8 0.4h0.3 -0.2c0 0-0.3-0.1-0.3-0.4 0.3-0.3 1 0 1.9-0.2 -0.9-0.5-1.3-1.6-2.2-1.6 -1 0.1-0.5 0.5-0.7 0.8 -0.3-0.3-0.6-0.3-0.7-1.3 -0.1-0.9 0.7-1.1 0.9-1.8 0.3 0 0 0.8 0.9 0.6l1.1-0.1c-0.5-0.6-0.8-1.2-1-2.1 -2.4 0.1-5.1-0.2-7.4-0.5 -1.6-0.2-4.2-1.8-5.2-1.8 -1 0.1 1 0.8-0.6 0.9 -2.1 0.2-0.3-0.9-1.3-0.9l-4.6 0.3c-1 0.1-1.9-0.9-2.9-1.2 -0.8-0.3-1.9 0-2.9 0 -0.3 0.3 1.3 0.6 2.1 0.9 1.3 0.5-1.9-0.8-4.6 1.1 -0.7-1.4 0-2.9-0.9-3.9 -0.9 0.1-0.5 0.5-0.7 0.8 -0.2-0.2-0.4 0.1-0.3 0.2 0.4 0.7 0.9 1.4 1.4 2.2 -1.5 0.1-2.5 0.3-4.1 0 0-1.1-0.7-2-1-3.1 -1.5 0.9-2.6 2.4-3.9 3.5l-0.9-1.2c-0.9 0-5.9-0.3-6.7-0.9 -1 0.4-2 0.7-3.1 0.4l1-0.4c-4.6-1.9-4.7 2.4-10-1.7 0.1-0.7-2 1.4-2.3 1.7 -0.1-0.4-0.2-0.7-0.3-1.1 -0.3 0.2-0.4 0.6-0.5 0.9 -0.1-0.4-0.3-0.7-0.5-1.1 -0.9 0.4-1.3 1.4-1.5 2.3 -1.7-2.1-4.4-2.6-6.9-3v0.7l-1.4 0.1 -0.1-1.4h0.5l0.1-1.6c-1.9-0.2-4.4-0.5-5.2-0.4 -1 0.1-1.1 0.5-1.3 0.8 -1.5-0.6-4-1.3-5-1.2 -1 0.1-3.1 1-4 1 -1 0.1-9.1-0.9-13.4-1.5 -0.4-0.2-0.4-0.9-0.9-1.2l-1 0.1 0.1 1.1c-1.4 0.4-3.7 1.3-4.7 1.4s-1.9-1.4-2.9-1.3S119 5.1 118 5.2s-0.8-0.1-0.9-0.6l-1.5 0.1c0 0.5 0.8 0.8 0.9 1.1l-1.4 0.4c-0.3-0.3-0.3-0.4 0.1-1 -0.5-0.5-0.2-0.6-1.2-0.5s-0.7 0.5-1 0.8c-0.7-0.3-1.3-1.4-2.2-1.4 -1 0.1-2.5 0.9-3.5 1s-3-0.6-4-0.5 -0.9 0.8-1.9 0.9 -1.9-1.2-2.7-1.1c-2.3 0.3-5.4 0.3-6-0.5 -0.1-0.3 0.1-0.5 0.7-1.1L91.8 3c0 0-1.5-0.3-2-0.2 -1 0.1-1.3 0.2-1.3 0.2 -0.6 0.3 1.5 0.7 2.2 1.2 -1.4 0.3-2.3 1-3.3 1 -1 0.1-1-0.7-2-0.6s-0.1 0.8-1.1 0.8c-1 0.1-0.7-0.7-1.6-0.7 -2.2 0.1 0.6 1.1-2.6 0.7 0-0.3 0.5-0.6 0.8-0.8 -0.4-0.2-1.1-0.3-1.7 0 -0.9 0.4-1 1.1-2 1.2s-1.7-0.6-2.3-1.2c-1.5-0.6-4.7 2.1-4.8-0.9 -3-0.3-8.5-1.4-9.5-1.4 -1 0.1-0.3 1.2-1.3 1.2 -1 0.1-0.7-0.7-1.2-0.6 0 0.5-0.7 0.8-1.2 1.1 -0.7 1.3-1.2 1.3-1.5 1.3 -2.1 0.1-1.7-2.4-3.9-3.3 -0.9 0.9-1.9 0.9-2.9 0.9 -1 0.1-3.5-0.5-4.5-0.5 -1 0.1-3 1-4 1C39 3.5 38.3 3.8 38 2.8L34.1 3l0.1 1.2c-0.4 0.3-0.8 0.7-1.8 0.8s-1.1-0.2-1.5-0.8c0.7-0.3 1.5-0.4 2.4-1 -3.2 0.1-3.9 0.9-4.4 0.9 -1 0.1-1.7-0.6-2.2-1.4 -0.5 0-0.9 0.8-1.9 0.9s-0.9-0.7-1.9-0.7c-1 0.1-0.8 0.8-1.8 0.9s-1.3-0.7-2.3-0.6l-3.5 0.3c-1-0.1-0.5 0.8-1.6 0.8L9.4 4.5c0 0-0.5-0.1-0.6 0.9S8.1 6.3 8 7.3l0.7 4.8c0.6 0.1 0.8 0.9 1.6 1.2 0 0.3-0.3 0.5-0.8 0.5 0.7 2.2 2.9 2.5 3.3 4.9 0.1 0.7-0.4 3.6-0.1 4.3 0.3 0.2 0.6-0.4 0.7 0.6 0.1 1-1.1 1.4-1 2.4s0.9 1 1.2 1.3c0.2 1.1 0.6 2.1 1 3 0.5 1 0.2 2.3 0.5 3.3 0.7 2 0.6 0.5 1 2.7 0.3 0.2 2 3.6 2.1 4.6s-1 0-1 1l0.1 1.3c0.1 0.8 0.8 0.4 1.6 0.3 0.4 1.6 0.7 3.6 0.9 4.7 0.3 0.2 0.8 0.2 0.9 1.1 0.1 1-0.8-0.1-0.7 0.8l0.1 1.3c0.1 1 1.1 0.1 1.9 0.3 2 0.4 5.9-1.2 6.9-1.2 1-0.1 3.9 0.4 4.9 0.3 1-0.1 2.5-1 3.5-1.1s2.1 0.6 3.1 0.5 1.3-0.9 2.3-1 4.9 1.1 5.9 1c0.1 0 1.1-0.9 1.7-0.9 1-0.1 1.4-0.2 1.9 0.6 0.5 0 0-0.8 1-0.8l10.5-0.9c1-0.1 2.4 0.5 3.7 1.2l6.7-0.6c1-0.1 0.4-0.8 1.4-0.9 1-0.1 1.1 0.7 2 0.6 1-0.1 0.5-0.8 1.5-0.9 1-0.1 3.9 1.2 4.9 1.1 1-0.1 2.1-1 3.1-1.1s3.4 0.5 4.4 0.4 1.7-0.9 2.7-1 0.8 0.1 0.9 0.7l6.8-0.6c1-0.1 1.5 0.5 1.6 1.4 0.5 0 0.1-0.7 1.1-0.8l6.3-0.6c1-0.1 0.4 0.2 0.6 0.7 0.6-0.5 1.2-0.9 2.2-1s10.5 0.6 11.4 0.5c1-0.1 0.9-0.9 1.9-0.9 1-0.1 1.2-0.1 0.9 0.6 1-0.4 2.1-0.1 6.8-0.5 0.4 0 1 0 0.7 0.6 0.6 0.1 0.7-0.4 0.9-0.7 0 0 0.2 0.1 0.4 0.6 -0.1-0.2 0-0.6 0.6-0.7l4.8-0.4c0.3 0.3 0.1 0.8 1.1 0.7s0.1-0.8 1.1-0.9c1-0.1 2.5 0.5 3.8 1.2l7-0.6c1-0.1 1.3 0.7 1.7 0.6 6.6-0.6 8.5-0.4 9.5-0.5s4.9 0.7 6.9 0.9c0.8-0.5 1.3-0.5 2.2-0.6 0.1 0 1.5 0 2.4 0.6 0.5-0.5 0.3-0.8 1.3-0.9 1-0.1 1 0.7 1.8 0.6l4.4-0.2c0 0-0.2 0.2-0.5 0.4 0.4 0.2 0.6 0.5 1.6 0.4s-0.6-0.7 0.3-0.8c1-0.1 1.2 0.3 5.4-0.1 0.3 0 0.9 0.3 1.6 0.4v-0.8l-0.1 0.1c-2-1.6 0.3-1.1-2.2-2 0.7-0.2 1.7 0.1 2.2 0.6 0.1-0.1 0.2-0.3 0.2-0.5l1.2 0.3c0.1 0 0.1 0 0.2 0l0.8 0.2c0 0.2 0.1 0.5 0.1 0.7 -0.4-0.3-0.7-0.4-0.9-0.5 0 0.7 0 1.4 0.1 2h0.1c0.4-0.8 1.8-1.6 2.4-2.2 0.5 0.6 0.4 1.3 1.3 1.4 0.9 0.1 1-1.2 1.8-1.1 1.5 0.1 2.3 3.3 4.7 0 0.6 0.6 0.5 1.5 0.7 2.2 0.8-2.3 2.6-1.7 3.8-0.3h0.2c0.1 0 0.2 0 0.3 0 0.2-0.3 0.3-0.6 0.4-0.9 0.9 0 1.4 1 2.1 1.4l3.3 0.1 0.1-0.1c-0.7-0.3-1.3-0.7-2-0.8 0.5-0.6 0.7-0.2 1.4-0.2h0.3c0.5 0 0-0.3 0.2-0.6 0.5 1.4 2 0.7 2.8 0.1l0.9 1.3c-0.4 0-0.8 0-1.2 0.2l1.4 0.3c0.6 0 1.1 0 1.7 0 0.2-0.4 0-0.9-0.2-1.3 0.6-0.1 1.2 0 1.6-0.6 -0.8-0.4-1.5-0.4-2.3-0.2 0.4-0.6-0.3-1.2 0.1-1.8 -0.3-0.3-1.3-0.1-1.9-0.6 0.4-0.4 0.5-0.9 0.6-1.5 1.6 1.6 2 1 3.7 1.3 0 0.5-0.4 0.7-0.8 0.9l1.6 0.5c0-0.6-0.4-1.2-0.4-1.7 1-0.5 2.2-0.3 3.3-0.2 1 0.1-0.3-0.9 0.6-0.8 1 0.1-0.4 0.8 0.5 0.9 1 0.1-0.5-0.9 0.4-0.8 0.9 0.1 1.7 1 1.9 1.9 0.2-0.2 0.3-0.5 0.3-0.8 0.9 0 2.9 1.5 3.2-0.1 0.4 0.1 0.8 0.4 1 0.8 -0.9 0.5-1.9 0.4-2.9 0.2l0.1 0.7c0.1 1-0.8-0.2-0.8 0.8 -0.1 0.8 0.3 1.7 0.2 2.5 1.1 0.4 2.1 0.6 3.2 0.8l1.7-0.2v-0.2c0-0.3 0-0.5 0.1-0.5l0.4 0.2 0.1 0.1c0.1 0.1 0.3 0.1 0.4 0.2 0.1 0 0.2 0.1 0.3 0.1 0.3 0 0.5 0 0.5 0.1h0.2c0.2 0 0.4-0.1 0.4-0.1 0.1-0.1 0.1-0.1 0.2-0.2 0.1-0.2 0.3-0.3 0.3-0.3 0.3-0.1 0.8-0.2 1.1-0.2l1.3-0.1c0.3 0 0.5 0 0.5 0.1s-0.2 0.3-0.3 0.6l-0.3 1c0.9 0.1 1.7 0.2 2.2 0.2 1.8-0.2 2.9-0.6 3.9-2.5 -0.6-0.1-0.7 0.2-0.8-0.8 -0.1-0.9 0.7-0.3 0.7-1.2 0-0.3-0.1-0.5-0.2-0.6 -1 0.6-2.2-0.6-2.6 2.1 -0.6-0.6-1.4-0.5-2.1-0.2 -0.1-0.5 0.4-0.7 0.7-1 -2.4-2.7-5.8-0.5-8.6-0.3 0.4-1.1 4.8-2.5 6-2.3 1.3 0.1 3.3 1.7 4.4 1.7 0.1 0 1-0.4 1.8-0.7C248.2 42.9 248 42.7 247.9 41.3"/></svg>