<svg xmlns="http://www.w3.org/2000/svg" viewBox="0 0 256 256"><path fill="currentColor" d="M50.5 205.1c-3.5-1.9-6-5.1-7.1-8.9L8.7 77.9c-2.3-7.9 2.2-16 10-18.2l162.2-45.1c7.8-2.2 16.1 2.4 18.4 10.3l34.2 116.5c0.5 1.6-0.5 3.4-2.2 3.8 -1.7 0.5-3.4-0.5-3.9-2.1L193.2 26.5c-1.3-4.6-6.1-7.3-10.6-6L20.5 65.6c-4.5 1.2-7 6-5.7 10.6l34.7 118.3c0.7 2.2 2.1 4.1 4.2 5.2 2 1.1 4.3 1.4 6.4 0.8l60.1-16.6c1.7-0.5 3.4 0.5 3.9 2.1 0.5 1.6-0.5 3.4-2.2 3.8l-60.1 16.6c-1.3 0.4-2.7 0.5-4 0.5C55.3 207.1 52.8 206.4 50.5 205.1zM65.4 185.9c0.5 0 1.1-0.1 1.6-0.2l42.6-12c1.7-0.5 2.6-2.2 2.2-3.8 -0.5-1.6-2.2-2.6-3.9-2.1l-41.9 11.9L37.1 80.5l139.3-39c1.8 6.2 10.7 40.4 18.8 68.3 0.5 1.6 2.2 2.6 3.9 2.1 1.7-0.5 2.6-2.2 2.2-3.8 -8.8-30-19-69-19-69 -0.4-1.4-1.3-2.5-2.6-3.2 -1.3-0.7-2.9-0.9-4.4-0.5L34.7 74.7c-3 0.8-4.8 3.9-3.9 6.8L60 182C60.7 184.4 63 185.9 65.4 185.9M164.1 61.8l-1.7-5.8L51.1 87.3l1.7 5.8L164.1 61.8zM169.5 77.7l-1.7-5.8L56.5 103.2l1.7 5.8L169.5 77.7zM59.2 124l13.3 46.7 35.7-10.6 -4.8-5.7 -26.9 8 -10-33.7 18.2-5.3 2.1-7.9L59.2 124zM131.8 98.1l6-1.6 1.7 5.6 -6 1.6L131.8 98.1zM142.7 95.2l6-1.6 1.7 5.6 -6 1.6L142.7 95.2zM153.6 92.3l6-1.6 1.7 5.6 -6 1.6L153.6 92.3zM164.5 89.4l6-1.6 1.7 5.6 -6 1.6L164.5 89.4zM247.2 190.9l-7.8-9.4 -0.2-9.4c-0.1-5-7.9-18.5-11.5-22.4l-32.9-36.3c-2.2-2.5-5.4-3.9-8.8-4.1 -3.4-0.2-6.7 0.9-9.2 3 -1.5 1.2-2.6 2.7-3.4 4.2 -4.6-3.1-10.9-2.5-15.4 1.9 -1.9 1.8-3.1 4.1-3.7 6.5 -5.1-3.4-12.4-3.1-17.5 1.2 -3.3 2.7-5 6.5-5.1 10.3l-19.3-22.5c-4.7-5.8-13.2-6.2-18.9-0.8 -2.7 2.6-4.4 6.1-4.8 9.8 -0.4 3.9 0.7 7.5 3 10.4l32.3 39.7c-0.1 0.5-0.1 1 0.1 1.6 4.8 16.4 11.3 36.6 21.1 42.7 5.4 3.4 11.6 4.4 17.6 5.5 0.9 0.2 1.8 0.3 2.8 0.5 0.4 0.2 0.9 0.4 1.5 0.4l20.8 2 10.5 14.8c1.1 1.6 3.4 2 5 0.9l0.4-0.3c1.6-1.1 2-3.4 0.9-5L194 221c-0.7-1.1-2-1.6-3.2-1.5 -0.2-0.1-0.5-0.1-0.7-0.1l-22.3-2.2c-0.1 0-0.2 0-0.2 0 -0.2-0.1-0.4-0.2-0.6-0.2 -1-0.2-1.9-0.3-2.9-0.5 -5.4-0.9-11-1.9-15.5-4.7 -4.6-2.8-9-10.3-14.5-26.8l4.3 5.3c0.6 0.7 1.4 1.1 2.2 1.1 0.7 0 1.4-0.3 1.9-0.8 1.2-1.1 1.3-3.1 0.3-4.5l-46.5-57.1c-1.2-1.5-1.8-3.5-1.6-5.6 0.2-2.2 1.2-4.2 2.8-5.7 3.3-3.1 8-3 10.6 0.2l34.4 40.1 0.4 0.7c0.1 0.2 0.2 0.2 0.4 0.4 0.2 0.2 0.3 0.3 0.5 0.4l0.1 0.1c1.1 1.3 2.9 1.4 4.2 0.3 1.2-1.1 1.3-3.1 0.3-4.5l-1-1.1 -7.6-13.3c-2.7-3-2.1-7.7 1.3-10.5 3.4-2.9 8.4-2.8 11.1 0.2l3.9 5.4c0.1 0.3 0.3 0.5 0.4 0.8 0.2 0.3 0.4 0.6 0.7 0.8l5.5 7.7c1.1 1.2 3.1 1.3 4.3 0.3 1.3-1.1 1.4-2.9 0.3-4.2l-5.5-7.7c-0.1-0.4-0.3-0.8-0.5-1.1 -1.7-2.9-1.6-6.6 1-9.1 2.9-2.8 7-2.8 9.3 0l7.3 9.2c1.2 1.4 3.1 1.6 4.5 0.3 1.3-1.3 1.4-3.5 0.3-4.9l-4.9-6.1c-0.3-2.3 1.1-4 2.4-5.1 1.3-1.1 2.9-1.6 4.6-1.5 1.7 0.1 3.2 0.8 4.3 2l32.9 36.3c3.6 4 9.8 16 9.9 18.4l0.1 8.2c-0.3 0.8-0.3 1.7 0 2.5l0 0.6 0.3 0c0 0 0 0 0 0.1l9.4 11.3c0.6 0.7 1.4 1.1 2.2 1.1 0.9 0 1.8-0.4 2.4-1.2C248.2 193.7 248.1 191.9 247.2 190.9z"/></svg>