<svg xmlns="http://www.w3.org/2000/svg" viewBox="0 0 256 256"><circle fill="currentColor" cx="128" cy="128" r="119.5"/><path d="M190.2 168.7c-0.6-4.7-0.9-8.2-0.7-10.5s0.7-5.8 1.6-10.5c-6.2-4-12.2-8.3-17.8-12.6 -5.6-4.4-12.5-9.3-20.6-15 -0.9-0.6-1.8-1.9-2.6-4 -0.8-2-1-4-0.7-5.8 0.6-2.8 1.9-5.1 3.7-7 1.9-1.9 3.9-2.8 6.1-2.8 8.1 0 18.4 0 30.9 0 -5.9-15.6-6.1-27.9-0.5-36.9 -19.3 0-33.8 0-43.5 0 0 1.6-0.2 3.4-0.7 5.4s-0.5 4.6-0.2 7.7c0 3.1 0.6 6.2 1.9 9.3 1.2 3.1 1.2 7 0 11.7 -1.2 3.7-2.4 6.5-3.5 8.4s-2.3 3.1-3.5 3.7c-10-7.5-21.2-15.8-33.7-25s-21.8-16.3-28-21.3h-8.4c-0.3 0-0.5 0.2-0.5 0.5 2.2 4.4 3.7 9.2 4.7 14.5 0.9 5.3 1.1 10.4 0.5 15.4 -0.6 6.5-1.2 11.1-1.9 13.8 -0.6 2.7-0.9 6.8-0.9 12.4 0 6.2 0.6 12.1 1.9 17.5 1.2 5.5 1.7 11.1 1.4 17.1 -0.6 8.7-1.6 16.4-3 23.1 -1.4 6.7-2.6 11.3-3.5 13.8 -0.3 0.9-0.2 1.7 0.5 2.3h51c-4.4-9.3-6.1-20.3-5.1-32.7 -8.4 0-14.8 0-19.2 0 -7.2 0-11.5-3.8-12.9-11.5 -1.4-7.6-1.6-14.9-0.7-21.7 0.6-5.3 2-9.2 4.2-11.7s3.4-3.7 3.7-3.7l106.6 78.5c0-0.3 0.2-0.5 0.5-0.5s0.3-0.2 0-0.5c-1.6-3.4-3-7-4.2-10.8C191.7 175.7 190.8 172.1 190.2 168.7z"/></svg>
