<svg xmlns="http://www.w3.org/2000/svg" viewBox="0 0 256 256"><path fill="currentColor" d="M162 170H22.4c-0.2 0-0.4-0.2-0.4-0.4V43.4c0-0.2 0.2-0.4 0.4-0.4h178.2c0.2 0 0.4 0.2 0.4 0.4V84h-6V49H28v115h134V170zM162 179H21c-3.3 0-6-2.7-6-6V42c0-3.3 2.7-6 6-6h182c3.3 0 6 2.7 6 6v42h6V42c0-6.6-5.4-12-12-12H21c-6.6 0-12 5.4-12 12v131c0 6.6 5.4 12 12 12h141V179zM236 97h-56c-3.3 0-6 2.7-6 6v119c0 3.3 2.7 6 6 6h56c3.3 0 6-2.7 6-6V103C242 99.7 239.3 97 236 97M236 91c6.6 0 12 5.4 12 12v119c0 6.6-5.4 12-12 12h-56c-6.6 0-12-5.4-12-12V103c0-6.6 5.4-12 12-12H236L236 91zM233 113h-49v97h49V113M238.6 107c0.2 0 0.4 0.2 0.4 0.4v108.2c0 0.2-0.2 0.4-0.4 0.4h-60.2c-0.2 0-0.4-0.2-0.4-0.4V107.4c0-0.2 0.2-0.4 0.4-0.4H238.6L238.6 107zM218 222L218 222c0-1.1-0.9-2-2-2h-13c-1.1 0-2 0.9-2 2l0 0c0 1.1 0.9 2 2 2h13C217.1 224 218 223.1 218 222zM211 102v-1c0-1.1-0.9-2-2-2h-1c-1.1 0-2 0.9-2 2v1c0 1.1 0.9 2 2 2h1C210.1 104 211 103.1 211 102zM224.3 121.1l-33.2 33.2 3.5 3.5 33.2-33.2L224.3 121.1zM212.2 154.2l-21.1 21.1 3.5 3.5 21.1-21.1L212.2 154.2zM163 210c0-8.3-6.5-15-14.4-15H76.4c-7.9 0-14.4 6.7-14.4 15v6h6v-6c0-5 3.8-9 8.4-9h72.2c4.6 0 8.4 4 8.4 9v6h6V210zM90 185h-5v11h5V185zM139 185h-5v11h5V185z"/></svg>