<svg xmlns="http://www.w3.org/2000/svg" version="1" viewBox="0 0 500 98"><path fill="#010101" d="M316.6,64.7V36.7h-20.4V25.5h27.7c3.1,0,5.5,2.4,5.5,5.5v33.8H316.6z M370.4,62.7V51.9l-4.7,0.3V31	c0-3-2.5-5.5-5.5-5.5c0,0-0.1,0-0.1,0h-25.9v11.2h18.7v16.6L334.2,55v11.1L370.4,62.7z M394.8,53.1L374.9,55v11.1l27.3-2.6	c3.4-0.3,5.5-3.4,5.5-5.9V31c0-3.1-2.5-5.5-5.6-5.5l0,0h-29.6v11.2h22.3L394.8,53.1L394.8,53.1z M449.1,49.9	c-2.8-2.7-4.3-6.4-4.3-10.3c0-5.2,2.8-10,7.2-12.6c-1-1-2.4-1.5-3.8-1.5h-12.4v11.2h4.4l-3.3,11.6c-0.4,1.5-1.2,2.6-2.6,3.2	l-0.5,0.2l-5.5-21.9c-0.7-2.7-2.9-4.2-5.9-4.2h-10.2v11.2h5.1l4.7,18l-9.1,2.4l3,10.9c0,0,14.7-3.9,17.6-4.6c8.8-2,13.4-6,15.4-13.2	L449.1,49.9L449.1,49.9L449.1,49.9z M466.4,39.9c0-1-0.3-2.1-0.7-3c-1.6-3.3-5.6-4.6-8.9-2.9s-4.6,5.6-2.9,8.9	c1.1,2.2,3.4,3.6,5.9,3.6v5.4c-6.6,0-12-5.4-12-12.1s5.4-12,12.1-12c4.5,0,8.6,2.6,10.7,6.6c0.9,1.7,1.3,3.6,1.3,5.5L466.4,39.9	L466.4,39.9L466.4,39.9z M473.1,49.2c1.4,0,2.5-1.1,2.5-2.5c0-1.4-1.1-2.5-2.5-2.5c-1.4,0-2.5,1.1-2.5,2.5l0,0	C470.6,48.1,471.7,49.2,473.1,49.2z M497.3,65.4l0-0.4c-1-11.8-6.6-19.2-11.9-23.7c3.6-4.9,2.5-11.7-2.4-15.3	c-4.8-3.5-11.4-2.6-15.1,2.1c1.5,1,2.9,2.4,3.9,3.9l0.1-0.1c1.7-2.5,5.2-3.1,7.7-1.4c2.5,1.7,3.1,5.2,1.4,7.7	c-0.3,0.4-0.6,0.7-1,1.1l-0.1,0.1c-1.3,0.8-1.7,2.4-1,3.7c0.2,0.4,0.5,0.7,0.8,0.9c6.4,4.4,10.4,10.6,11.7,18.4l-13.1-2.5	c-0.7-0.5-1.2-1.1-1.7-1.7c-0.9-1.2-1.5-2.6-1.9-4.1l-2.2,0.5c0.4,1.7,1.1,3.2,2.1,4.6l-5.4-1c-1.5-0.3-2.9,0.7-3.2,2.2	c-0.3,1.5,0.7,2.9,2.2,3.2l0,0l25.9,4.9l0.5,0c1.5,0,2.7-1.2,2.7-2.7C497.3,65.5,497.3,65.5,497.3,65.4z"/><path fill="#08829E" d="M39.1,49.6c-2,7.2-6.6,11.3-15.5,13.3c-3,0.7-17.8,4.6-17.8,4.6l-3.1-11l9.2-2.4L7.3,36H2.2V24.8h10.2	c3,0,5.3,1.5,5.9,4.2L23.8,51l0.5-0.2c1.4-0.6,2.2-1.7,2.6-3.2L30.3,36h-4.5V24.8h12.5c3.1,0,5.6,2.5,5.6,5.5	C43.9,31.3,42.8,36.5,39.1,49.6z M77.4,24.8c2.9,0,5.1,2.8,4.3,5.4L76,49.3h-8.5l0.9,3.8h9.4c2.1,0,4-1.5,4.6-3.5L86.5,36h-2.9V24.8	h11.2c3.3,0,5.9,3.3,5.1,6.4l-5.5,19.9c-2.2,7.9-7.4,13.1-15.9,13.1H59.1L52.2,36h-4.7V24.8h9.4c2.9,0,5,1.3,5.7,4.1l3.7,15.5	l2.5-8.3h-3V24.8H77.4z M121.9,64.3h-12.8V36H104V24.8h12.4c3.1,0,5.6,2.5,5.6,5.5L121.9,64.3z M151.9,64.3V36h-23V24.8h30.3	c3.1,0,5.6,2.5,5.6,5.5v34H151.9z M128.9,64.3V42.6h12.7v21.6H128.9z M176.7,48.2V36h-6.6V24.8H184c3.1,0,5.6,2.5,5.6,5.5v18H176.7z M217.4,48.2V36h-6.6V24.8h13.9c3.1,0,5.6,2.5,5.6,5.5v18H217.4z M234.3,64.3V53.1h9.6V36h-6.6V24.8h13.9c3.1,0,5.6,2.5,5.6,5.5v34	H234.3z M280.5,64.3l-1.7-8.9l-11,11.8l-8.8-7.6l13.4-14.4l4.8,1.7L275.7,36H268V24.8h13.8c2.5,0,4.7,1.3,5.3,3.8	c0.3,1.3,6,35.7,6,35.7H280.5z"/></svg>