<svg xmlns="http://www.w3.org/2000/svg" viewBox="0 0 256 256"><path fill="currentColor" d="M224 75.9c0.1 2.3 0.2 4.6 0.2 6.8 0 70.7-49.6 152.3-140.1 152.3 -27.9 0-53.7-8.9-75.5-24.1 3.8 0.5 7.8 0.7 11.8 0.7 23.1 0 44.3-8.5 61.1-22.9 -21.5-0.3-39.7-15.8-46-37.2 3 0.7 6 0.9 9.2 0.9 4.5 0 8.9-0.6 13-1.8 -22.5-5-39.5-26.6-39.5-52.5 0-0.2 0-0.5 0-0.7 6.6 4 14.2 6.3 22.3 6.7 -13.2-9.5-21.9-25.9-21.9-44.5 0-9.8 2.4-19 6.6-26.9 24.3 32.3 60.6 53.7 101.5 55.8 -0.8-3.9-1.2-8-1.2-12.1 0-29.6 22-53.5 49.2-53.5 14.1 0 27 6.5 35.9 17 11.2-2.5 21.8-6.9 31.3-13 -3.7 12.5-11.5 22.9-21.7 29.6 10-1.3 19.4-4.1 28.3-8.4C242 58.8 233.6 68.2 224 75.9z"/></svg>