<svg xmlns="http://www.w3.org/2000/svg" viewBox="0 0 256 256"><path fill="currentColor" d="M246.8 99.5c-0.8-2.6-3.4-4.3-7.7-4.9L167 83.4 135 15c-1-1.8-2.1-3.3-3.3-4.4C130.5 9.5 129.2 9 128 9s-2.5 0.5-3.7 1.6c-1.3 1.1-2.4 2.5-3.3 4.4L89 83.4 17 94.5c-4.4 0.6-6.9 2.3-7.7 4.9 -0.8 2.7 0.4 5.7 3.5 9.1l52.1 53 -12.6 74.8c-0.3 3.4 0 6 0.9 7.9 0.9 1.9 2.6 2.8 5.1 2.8 0.6 0 1.4-0.2 2.3-0.5 1-0.3 2.1-0.8 3.3-1.4l64.1-35.3 64.2 35.3c1.3 0.6 2.4 1.1 3.3 1.4 0.9 0.3 1.9 0.5 2.8 0.5 2.1 0 3.7-0.9 4.6-2.8 0.9-1.9 1.2-4.5 0.9-7.9l-12.6-74.7 52.1-53C246.4 105.2 247.6 102.1 246.8 99.5zM128 200.5L60.2 238c0-0.2 0-0.5 0-0.7l12.5-74.5 0.7-4 -2.9-2.9 -52-52.9c-0.2-0.2-0.4-0.4-0.5-0.6l0 0 0.1 0 72-11.1 4.2-0.7 1.8-3.9L120 36l8-16.5V200.5z"/></svg>