<svg xmlns="http://www.w3.org/2000/svg" viewBox="0 0 256 256"><path fill="currentColor" d="M61 179c0 12.4 8.4 23 20.7 23H91v31c0 6.2 3.7 11.9 9.5 14 10.3 3.7 18.5-5.9 18.5-15.6V202h15v29.5c0 8.2 8.6 16.4 15 16.4 8.4 0 14-8.2 14-16.4V202h7c12.3 0 24-9.5 24-21.9V99H61V179zM154.4 29.5l9.4-18.1c0.5-0.9 0.1-2-0.8-2.4 -0.9-0.5-2-0.2-2.5 0.7L151 28.1c-7.5-2.9-15.5-5.1-24-5.1 -8.5 0-16.8 2.2-24.3 5.1L93.2 9.7c-0.4-0.7-1.3-1.1-2.1-0.8 -1 0.4-1.7 1.5-1.2 2.5l9.4 18.1C78.2 39.1 64.6 60.1 62 84h132C191.3 60.1 175.5 39.1 154.4 29.5zM103.5 69.4c-5.6 0-10.1-4.5-10.1-10.1s4.5-10.1 10.1-10.1c5.6 0 10.1 4.5 10.1 10.1S109 69.4 103.5 69.4zM152.3 69.4c-5.6 0-10.1-4.5-10.1-10.1s4.5-10.1 10.1-10.1 10.1 4.5 10.1 10.1S157.9 69.4 152.3 69.4zM39.6 173h-0.1c-7.9 0-14.4-6.5-14.4-14.4V95.4C25 87.5 31.5 81 39.4 81h0.1C47.5 81 54 87.5 54 95.4v63.1C54 166.5 47.5 173 39.6 173zM216.6 173h-0.1c-7.9 0-14.4-6.5-14.4-14.4V95.4c0-7.9 6.5-14.4 14.4-14.4h0.1c7.9 0 14.4 6.5 14.4 14.4v63.1C231 166.5 224.5 173 216.6 173z"/></svg>