<svg xmlns="http://www.w3.org/2000/svg" viewBox="0 0 256 256"><path fill="currentColor" d="M157 33H67v74h10V43h70v32 10h10 36v121H77v-9H67v19h136V75L157 33zM157 75V47.4L187.2 75H157zM109.1 147.5c0.3 1.3 0.5 2.8 0.5 4.5 0 1.8-0.2 3.3-0.7 4.6 -0.5 1.2-1.1 2.3-1.8 3 -0.8 0.8-1.6 1.3-2.6 1.7 -1 0.3-2 0.5-3 0.5h-6.4v-20.6h5.1c1.8 0 3.3 0.3 4.5 0.8 1.2 0.5 2.2 1.2 2.9 2.2C108.3 145 108.8 146.1 109.1 147.5zM73.7 143.1c0.3 0.6 0.5 1.5 0.5 2.5 0 1-0.2 1.9-0.5 2.5 -0.4 0.6-0.8 1.1-1.4 1.5 -0.6 0.4-1.2 0.6-2 0.7 -0.8 0.1-1.6 0.2-2.4 0.2h-5.6v-9.8h5.6c0.8 0 1.6 0.1 2.4 0.2 0.8 0.1 1.4 0.4 2 0.7C72.9 141.9 73.3 142.4 73.7 143.1zM43 121v62h113v-62H43zM80.5 149.4c-0.4 1.3-1.1 2.4-2 3.4 -0.9 1-2.1 1.8-3.5 2.4 -1.4 0.6-3.2 0.9-5.2 0.9h-7.5v11.7h-7.2v-32.6h14.7c2 0 3.8 0.3 5.2 0.9 1.4 0.6 2.6 1.4 3.5 2.4 0.9 1 1.6 2.1 2 3.3 0.4 1.2 0.6 2.5 0.6 3.9C81.2 146.9 80.9 148.2 80.5 149.4zM115.9 157.8c-0.6 2-1.5 3.7-2.8 5.2 -1.2 1.5-2.8 2.6-4.6 3.4 -1.8 0.8-4 1.3-6.5 1.3H87.9v-32.6H102c2.1 0 4.1 0.3 5.9 1 1.8 0.7 3.4 1.7 4.7 3 1.3 1.3 2.4 3 3.1 5 0.7 2 1.1 4.4 1.1 7.1C116.8 153.6 116.5 155.8 115.9 157.8zM147 141.1h-15.8v7.5h13.7v5.6h-13.7v13.5h-7.2v-32.6H147V141.1z"/></svg>