<svg xmlns="http://www.w3.org/2000/svg" version="1" viewBox="0 0 397 98"><path fill="#010101" d="M215.5,66V37.9h-20.4V26.7h27.7c3.1,0,5.5,2.4,5.5,5.5V66H215.5z M269.4,63.9V53.1l-4.7,0.3V32.2	c0-3-2.5-5.5-5.5-5.5c0,0-0.1,0-0.1,0h-25.9v11.2h18.7v16.6l-18.7,1.8v11.1L269.4,63.9z M293.8,54.4l-19.9,1.9v11.1l27.3-2.6	c3.4-0.3,5.5-3.4,5.5-5.9V32.2c0-3.1-2.5-5.5-5.6-5.5l0,0h-29.6v11.2h22.3L293.8,54.4L293.8,54.4z M348.1,51.1	c-2.8-2.7-4.3-6.4-4.3-10.3c0-5.2,2.8-10,7.2-12.6c-1-1-2.4-1.5-3.8-1.5h-12.4v11.2h4.4l-3.3,11.6c-0.4,1.5-1.2,2.6-2.6,3.2	l-0.5,0.2l-5.5-21.9c-0.7-2.7-2.9-4.2-5.9-4.2h-10.2v11.2h5.1l4.7,18l-9.1,2.4l3,10.9c0,0,14.7-3.9,17.6-4.6c8.8-2,13.4-6,15.4-13.2	L348.1,51.1L348.1,51.1L348.1,51.1z M365.4,41.1c0-1-0.3-2.1-0.7-3c-1.6-3.3-5.6-4.6-8.9-2.9c-3.3,1.6-4.6,5.6-2.9,8.9	c1.1,2.2,3.4,3.6,5.9,3.6v5.4c-6.6,0-12-5.4-12-12.1s5.4-12,12.1-12c4.5,0,8.6,2.6,10.7,6.6c0.9,1.7,1.3,3.6,1.3,5.5L365.4,41.1	L365.4,41.1L365.4,41.1z M372,50.5c1.4,0,2.5-1.1,2.5-2.5s-1.1-2.5-2.5-2.5s-2.5,1.1-2.5,2.5l0,0C369.5,49.3,370.6,50.5,372,50.5z M396.2,66.6l0-0.4c-1-11.8-6.6-19.2-11.9-23.7c3.6-4.9,2.5-11.7-2.4-15.3c-4.8-3.5-11.4-2.6-15.1,2.1c1.5,1,2.9,2.4,3.9,3.9	l0.1-0.1c1.7-2.5,5.2-3.1,7.7-1.4c2.5,1.7,3.1,5.2,1.4,7.7c-0.3,0.4-0.6,0.7-1,1.1l-0.1,0.1c-1.3,0.8-1.7,2.4-1,3.7	c0.2,0.4,0.5,0.7,0.8,0.9c6.4,4.4,10.4,10.6,11.7,18.4l-13.1-2.5c-0.7-0.5-1.2-1.1-1.7-1.7c-0.9-1.2-1.5-2.6-1.9-4.1l-2.2,0.5	c0.4,1.7,1.1,3.2,2.1,4.6l-5.4-1c-1.5-0.3-2.9,0.7-3.2,2.2c-0.3,1.5,0.7,2.9,2.2,3.2l0,0l25.9,4.9l0.5,0c1.5,0,2.7-1.2,2.7-2.7	C396.3,66.8,396.2,66.7,396.2,66.6z"/><path fill="#08829E" d="M6,74.6V37.9H1V26.7h12.3c3,0,5.5,2.4,5.5,5.5v42.4H6z M40.5,65.9l-1.7-8.8L27.9,68.8l-8.7-7.6l13.3-14.3	l4.8,1.7l-1.5-10.8h-7.7V26.7h13.7c2.5,0,4.7,1.3,5.2,3.8c0.3,1.3,5.9,35.4,5.9,35.4H40.5z M99,65.9v-28H88.8v28H67.9V54.8h8.2v-17	h-5.8V26.7h35.8c3,0,5.5,2.4,5.5,5.5v33.7H99z M135.5,65.9V54.8h6.7v-14c0-2-2-3.6-4.2-3.6c-2.2,0-4.1,1.5-4.4,3.4L129,65.9h-13.3	l5.2-26.8l-6.6-4.5l6.7-9.9l6.8,4.6c2.8-2.2,6.1-3.4,9.9-3.4c11.1,0,17.2,7.3,17.2,15.6v24.4H135.5z M178.6,65.9v-28h-20.4V26.7	h27.7c3,0,5.5,2.4,5.5,5.5v33.7H178.6z"/></svg>