<svg xmlns="http://www.w3.org/2000/svg" viewBox="0 0 1079.8 256"><path fill="currentColor" d="M238.4 174.8c-6.2 14.5-14.8 27.2-25.7 38.1 -10.9 10.9-23.6 19.5-38.1 25.7 -14.5 6.2-30 9.3-46.5 9.3 -16.5 0-32-3.1-46.5-9.3 -14.5-6.2-27.2-14.8-38.1-25.7C32.6 202 24 189.3 17.8 174.8c-6.2-14.5-9.3-30-9.3-46.5 0-16.5 3.1-32 9.3-46.5C24 67.3 32.6 54.6 43.5 43.7 54.4 32.8 67.1 24.3 81.6 18c14.5-6.2 30-9.3 46.5-9.3 16.5 0 32 3.1 46.5 9.3 14.5 6.2 27.2 14.8 38.1 25.7 10.9 10.9 19.5 23.6 25.7 38.1 6.2 14.5 9.3 30 9.3 46.5C247.8 144.9 244.7 160.4 238.4 174.8zM190.3 169c-0.6-4.7-0.9-8.2-0.7-10.5 0.2-2.3 0.7-5.8 1.6-10.5 -6.2-4-12.2-8.3-17.8-12.6 -5.6-4.4-12.5-9.3-20.6-15 -0.9-0.6-1.8-1.9-2.6-4 -0.8-2-1-4-0.7-5.8 0.6-2.8 1.9-5.1 3.7-7 1.9-1.9 3.9-2.8 6.1-2.8 8.1 0 18.4 0 30.9 0 -5.9-15.6-6.1-27.9-0.5-36.9 -19.3 0-33.8 0-43.5 0 0 1.6-0.2 3.4-0.7 5.4 -0.5 2-0.5 4.6-0.2 7.7 0 3.1 0.6 6.2 1.9 9.3 1.2 3.1 1.2 7 0 11.7 -1.2 3.7-2.4 6.5-3.5 8.4 -1.1 1.9-2.3 3.1-3.5 3.7 -10-7.5-21.2-15.8-33.7-25 -12.5-9.2-21.8-16.3-28-21.3h-8.4c-0.3 0-0.5 0.2-0.5 0.5 2.2 4.4 3.7 9.2 4.7 14.5 0.9 5.3 1.1 10.4 0.5 15.4 -0.6 6.5-1.2 11.1-1.9 13.8 -0.6 2.7-0.9 6.8-0.9 12.4 0 6.2 0.6 12.1 1.9 17.5 1.2 5.5 1.7 11.1 1.4 17.1 -0.6 8.7-1.6 16.4-3 23.1 -1.4 6.7-2.6 11.3-3.5 13.8 -0.3 0.9-0.2 1.7 0.5 2.3h51c-4.4-9.3-6.1-20.3-5.1-32.7 -8.4 0-14.8 0-19.2 0 -7.2 0-11.5-3.8-12.9-11.5 -1.4-7.6-1.6-14.9-0.7-21.7 0.6-5.3 2-9.2 4.2-11.7 2.2-2.5 3.4-3.7 3.7-3.7l106.6 78.5c0-0.3 0.2-0.5 0.5-0.5 0.3 0 0.3-0.2 0-0.5 -1.6-3.4-3-7-4.2-10.8C191.8 176 190.9 172.4 190.3 169zM351.8 154.1c-9.4 49.6-17.4 84.6-17.9 87.7 -0.5 3-23.9-83.6-22.8-86.7C329.5 103.3 314 79 298.8 79c-16 0-35.1 0-35.1 0 0-8 2.3-36.8-16.2-63.8l86.3 0C311.3 74.2 338.1 121.7 351.8 154.1zM342.9 15.1c12.3 28.7 10 59-0.6 87 -2 5.4 1.8 20.2 5.9 19 9.3-25.9 13.2-38.8 36.7-42.2 1.7 0 32.2 0 31.9 0 -3.5-6.8-15.8-28.7 1.4-63.8H342.9zM616.8 57.8c-0.6-7.4-2.4-29.9-11.8-42.6H434.5c-14.7 22.3-8.8 46.9 1.5 63.8 0.2-0.4 133.4 0 134.1 0 21.2 0.4 29.6 16.6 28.1 44.2 -0.6 12.3-8.9 31-15.5 40.1 -1.7 2.4 14.3 54.4 19.3 78.4 0 0 1.6-0.1 2.5-2.5 3-6.5 10.3-39.5 12.4-60.9 1.9-19.1-4.8-42.2-5.9-53.8C608.6 98.8 617.8 69.4 616.8 57.8zM870.9 114.5c0 0-2.8 25.8-14 52.9 -3.3 17.2-0.8 29.2 3 45.4 3.2 13.6 6.9 19.5 10.2 29.1h3.2c21.4-51.1 19-76.3 0.5-127.5C873.6 113.6 871.1 115.2 870.9 114.5zM661.8 101.3l192.4 140.4c0-3.2-9.3-29.2-11.5-42.1 -2.8-16.4-1.7-20.7 1.9-36.3 -22.8-14.9-40.5-29.1-69.5-48.3 -3.9-2.6-7.1-10.7-5.9-17.9 1.5-9.2 10-18.2 17.9-18.2 28.8 0 54.3 0 54.3 0s-19.8-31.9 0.1-63.8c-69.4 0-77.9 0-77.9 0 0 6.4-2.9 12-2.3 22.9 0.6 11.2 7.8 20.4 3.3 37.3 -3.6 13.2-8.1 19-12 21.5 -36.4-26.3-89.4-65.7-111.6-81.6h-15.1c0 0-1.4 0.3-0.9 1.1 7.9 15.1 11.3 35.1 9.6 52.2 -2.3 23.5-5.5 26.9-5.5 46.4 0 21.3 7.4 39.3 6.1 60.3 -1.9 30.5-8.5 54.7-11.5 63.7 -0.9 3.2 0.8 2.9 0.8 2.9h92.6c-16.5-31.9-9.6-54.3-9.6-54.3s-19.2 0-35.1 0c-25.7 0.3-27.9-35.2-24.8-59C649.7 110.5 660.9 101.6 661.8 101.3zM1056 124.3c-4.7-19.3-1.2-28.5 7.6-45.9 3.7-7.4 4.5-29.2 4.5-32 0 0-0.5-31.3-16-31.3 -85.3 0-191.5 0-191.5 0s-21.7 27.9 0 63.8c0.1-0.1 162.6 0 162.8 0 14.5-0.1 18 17.5 18.1 30.6 0 13.2-6.6 33.7-10.3 45.7 -2.8 9 10.5 51.8 17.8 86.5h3.2c1-2.7 14.8-75.3 13.6-85.4C1064.9 150.3 1059.4 138.4 1056 124.3z"/></svg>