<svg xmlns="http://www.w3.org/2000/svg" viewBox="0 0 256 256"><path fill="currentColor" d="M202.4,90.7c0.1,1.8,0.1,3.5,0.1,5.3c0,54.4-38.1,117.2-107.8,117.2c-21.4,0-41.3-6.8-58.1-18.6c3,0.4,6,0.6,9,0.6	c17.8,0,34.1-6.5,47.1-17.6c-16.6-0.2-30.6-12.2-35.4-28.6c2.3,0.6,4.7,0.7,7.1,0.7c3.5,0,6.8-0.4,10-1.4	C57.1,144.5,44,127.8,44,107.9c0-0.2,0-0.4,0-0.6c5.1,3.1,10.9,4.9,17.2,5.1c-10.2-7.3-16.9-20-16.9-34.2c0-7.6,1.9-14.6,5.1-20.7	c18.7,24.9,46.7,41.3,78.1,43c-0.6-3-1-6.1-1-9.3c0-22.8,17-41.2,37.9-41.2c10.9,0,20.8,5,27.6,13.1c8.7-2,16.8-5.3,24.1-10	c-2.9,9.6-8.9,17.7-16.7,22.8c7.7-1,15-3.2,21.8-6.5C216.2,77.5,209.8,84.8,202.4,90.7z"/></svg>