<svg xmlns="http://www.w3.org/2000/svg" viewBox="0 0 256 256"><path fill="currentColor" d="M52.6,202.3c1.1-2.9,2.5-8.3,4.1-16.2c1.6-7.9,2.8-16.9,3.6-27.1c0.4-6.9-0.2-13.6-1.6-20c-1.5-6.4-2.2-13.2-2.2-20.6	c0-6.6,0.4-11.4,1.1-14.5c0.7-3.1,1.5-8.5,2.2-16.2c0.7-5.8,0.5-11.9-0.5-18.1c-1.1-6.2-2.9-11.9-5.5-17c0-0.4,0.2-0.5,0.5-0.5h9.9	c7.3,5.9,18.3,14.2,32.9,25c14.6,10.8,27.8,20.6,39.5,29.3c1.5-0.7,2.8-2.2,4.1-4.4c1.3-2.2,2.6-5.5,4.1-9.9	c1.5-5.5,1.5-10.1,0-13.7c-1.5-3.7-2.2-7.3-2.2-11c-0.4-3.7-0.3-6.7,0.3-9c0.5-2.4,0.8-4.5,0.8-6.3c11.3,0,28.1,0,50.6,0	c-6.5,10.5-6.4,24.9,0.5,43c-14.5,0-26.5,0-36,0c-2.6,0-4.9,1.1-7.1,3.3c-2.2,2.2-3.6,4.9-4.4,8.2c-0.4,2.2-0.1,4.5,0.8,6.8	c0.9,2.4,1.9,3.9,3,4.6c9.5,6.6,17.5,12.4,24,17.5c6.6,5.1,13.5,10,20.8,14.7c-1.1,5.5-1.7,9.6-1.9,12.3c-0.2,2.7,0.1,6.8,0.8,12.3	c0.7,4,1.8,8.2,3.3,12.6c1.5,4.4,3.1,8.6,4.9,12.6c0.4,0.4,0.4,0.5,0,0.5c-0.4,0-0.5,0.2-0.5,0.5L77.9,109.2c-0.4,0-1.8,1.5-4.4,4.4	c-2.6,2.9-4.2,7.5-4.9,13.7c-1.1,8-0.8,16.5,0.8,25.4c1.6,8.9,6.6,13.4,15,13.4c5.1,0,12.4,0,22.4,0c-1.1,14.9,0.9,27.9,6.1,39H53.1	C52.4,204.3,52.2,203.4,52.6,202.3z"/></svg>