<svg xmlns="http://www.w3.org/2000/svg" viewBox="0 0 256 256"><path fill="currentColor" d="M131.9,184.4l-50.7,27.9c-0.9,0.5-1.8,0.9-2.6,1.1c-0.7,0.2-1.3,0.4-1.8,0.4c-2,0-3.3-0.7-4-2.2c-0.7-1.5-0.9-3.6-0.7-6.2	l10-59.1l-41.2-41.9c-2.4-2.7-3.4-5.1-2.8-7.2c0.6-2.1,2.6-3.4,6.1-3.9l56.9-8.8l25.3-54c0.7-1.5,1.6-2.6,2.6-3.5	c0.9-0.9,2.1-0.9,3-0.9l0,0"/><path fill="currentColor" d="M131,184.7l51.5,27.6c1,0.5,1.9,0.9,2.6,1.1c0.7,0.2,1.5,0.4,2.2,0.4c1.7,0,2.9-0.7,3.6-2.2c0.7-1.5,0.9-3.6,0.7-6.2l-10-59	l41.2-41.9c2.4-2.7,3.4-5.1,2.8-7.2c-0.6-2.1-2.7-3.4-6.1-3.9l-57-8.8l-25.3-54c-0.8-1.4-1.7-2.6-2.6-3.5c-0.9-0.9-2.7-0.9-3.7-0.9"/></svg>