<svg xmlns="http://www.w3.org/2000/svg" xmlns:xlink="http://www.w3.org/1999/xlink" viewBox="0 0 256 256">
  <path fill="currentColor" d="M187.1 131c-0.3-27.4 22.4-40.5 23.4-41.2 -12.7-18.6-32.6-21.1-39.6-21.4 -16.9-1.7-32.9 9.9-41.5 9.9 -8.5 0-21.8-9.7-35.7-9.4C75.3 69.1 58.3 79.5 48.9 96c-19.1 33.1-4.9 82.2 13.7 109 9.1 13.1 20 27.9 34.2 27.4 13.7-0.5 18.9-8.9 35.5-8.9 16.6 0 21.2 8.9 35.8 8.6 14.8-0.3 24.1-13.4 33.2-26.6 10.4-15.3 14.8-30 15-30.8C215.9 174.6 187.4 163.7 187.1 131M159.9 50.6c7.6-9.2 12.7-21.9 11.3-34.6 -10.9 0.4-24.1 7.3-31.9 16.4 -7 8.1-13.3 21.4-11.7 33.8C139.7 67.1 152.3 59.7 159.9 50.6"/>
</svg>
