<svg xmlns="http://www.w3.org/2000/svg" viewBox="0 0 256 256"><path fill="currentColor" d="M38.1 135.4c-2.8 14.8-5.2 25.2-5.3 26.1 -0.1 0.9-7.1-24.9-6.8-25.8 5.5-15.4 0.9-22.7-3.7-22.7 -4.8 0-10.3 0-10.3 0 0-2.4 0.5-11-5-19h25C25.4 111.6 34 125.7 38.1 135.4zM35.1 94c3.7 8.5 2.9 17.6-0.2 25.9 -0.6 1.6 0.5 6 1.8 5.7 2.8-7.7 3.9-11.6 10.9-12.6 0.5 0 9.6 0 9.5 0 -1-2-5.1-8.5 0.1-19C57.1 94 35.1 94 35.1 94zM115.2 106.4c-0.2-2.2-0.7-8.7-3.4-12.4H62c-4.3 6.5-2.9 14.1 0.1 19 0.1-0.1 39.8 0 40 0 6.2 0.1 8.2 4.5 7.7 12.6 -0.2 3.6-2.6 9.1-4.5 11.7 -0.5 0.7 4.2 15.9 5.6 22.9 0 0 0.5 0 0.7-0.7 0.9-1.9 3-11.5 3.6-17.8 0.6-5.6-1.4-12.3-1.7-15.7C112.8 118.4 115.5 109.8 115.2 106.4zM189.5 122.8c0 0-0.8 7.5-4.1 15.5 -1 5-0.2 8.5 0.9 13.3 0.9 4 2 5.7 3 8.5h0.9c6.3-14.9 5.6-22.3 0.1-37.2C190.2 122.5 189.5 123 189.5 122.8zM129 119.4l54.9 40.1c0-0.9-2.7-8.3-3.3-12 -0.8-4.7-0.5-5.9 0.5-10.4 -6.5-4.3-11.6-8.3-19.8-13.8 -1.1-0.7-2-3.1-1.7-5.1 0.4-2.6 2.9-5.2 5.1-5.2 8.2 0 16.3 0 16.3 0s-5.9-9.5 0-19c-20.7 0-23 0-23 0s-0.8 3.2-0.6 6.4c0.2 3.3 2.3 6 1 10.9 -1.1 3.9-2.4 5.6-3.5 6.3 -10.6-7.7-32.6-23.6-32.6-23.6h-4.4c0 0-0.4 0.1-0.3 0.3 2.3 4.4 3.3 10.2 2.8 15.2 -0.7 6.8-1.6 7.8-1.6 13.5 0 6.2 2.2 11.4 1.8 17.6 -0.6 8.9-2.5 15.9-3.3 18.6 -0.3 0.9 0.2 0.8 0.2 0.8h27.1c-4.9-9.4-2.8-16-2.8-16s-5.2 0-9.7 0c-7.3 0.1-8-10-7.1-16.8C125.5 122 128.7 119.5 129 119.4zM243.4 125.8c-1.4-5.6-0.3-8.3 2.2-13.4 1.1-2.2 1.3-8.5 1.3-9.3 0 0-0.1-9.1-4.7-9.1 -24.8 0-55.8 0-55.8 0s-5.8 8.5 0.5 19c0 0 46.9 0 47 0 4.2 0 5.1 4.7 5.2 8.5 0 3.8-1.9 9.8-3 13.3 -0.8 2.6 3.1 15.1 5.2 25.2h0.9c0.3-0.8 4.3-21.9 4-24.9C246 133.4 244.4 129.9 243.4 125.8z"/></svg>