<svg xmlns="http://www.w3.org/2000/svg" viewBox="0 0 256 256"><path fill="currentColor" d="M215.5 72.4c-21.9-35.8-64-53.7-104.6-44 -33.3 7.9-56.8 28.1-69.3 60.3 -11 28.5-8.4 56.4 6.3 83.2 0.6 1 0.8 2.6 0.4 3.7 -3.6 11.1-16.3 44.4-18.4 50.3 1.9-0.7 36.9-11.3 53.5-16.5 1-0.3 2.4-0.3 3.2 0.1 9.9 5.1 20.3 8.6 31.3 10.2 16.9 2.5 33.5 1.1 49.4-5.4 34.2-14.1 55-39.5 61.2-76.3C232.6 114.6 227.8 92.6 215.5 72.4zM145.6 166.3c-12.2-4-23.4-9.5-32.8-18.5 -10.1-9.7-19-20.3-24.7-33.1 -4.6-10.2-4.4-20.4 2.6-29.7 2.9-3.9 5.9-5.6 11.9-6.1 4.6-0.5 6.4 1.9 7.9 5.8 2 5.2 4.1 10.3 6.4 15.4 1.2 2.6 0.9 4.9-0.7 7 -1.6 2.1-3.2 4.3-5 6.2 -1.7 1.8-1.7 3.5-0.5 5.5 7.2 11.8 16.8 21 29.5 26.6 6 2.6 6 2.7 10.1-2.3 1.7-2.1 3.4-4.3 5.1-6.4 1.4-1.9 3.2-2.4 5.3-1.4 6.4 3 12.7 6.1 19.1 9.1 1.6 0.8 2.2 1.9 2.3 3.7 0.1 9.9-6.8 18-16.6 20.4C158.4 170.1 152 168.4 145.6 166.3z"/></svg>